Unna-Regular.ufo
<glyph name="percent" format="1">
  <advance width="572"/>
  <unicode hex="0025"/>
  <outline>
    <contour>
      <point x="293" y="54"/>
      <point x="334" y="-10"/>
      <point x="420" y="-10" type="curve" smooth="yes"/>
      <point x="504" y="-10"/>
      <point x="546" y="52"/>
      <point x="546" y="129" type="curve" smooth="yes"/>
      <point x="546" y="207"/>
      <point x="503" y="269"/>
      <point x="420" y="269" type="curve" smooth="yes"/>
      <point x="339" y="269"/>
      <point x="293" y="209"/>
      <point x="293" y="129" type="curve" smooth="yes"/>
    </contour>
    <contour>
      <point x="367" y="213"/>
      <point x="381" y="251"/>
      <point x="420" y="251" type="curve" smooth="yes"/>
      <point x="459" y="251"/>
      <point x="473" y="216"/>
      <point x="473" y="130" type="curve" smooth="yes"/>
      <point x="473" y="44"/>
      <point x="459" y="8"/>
      <point x="420" y="8" type="curve" smooth="yes"/>
      <point x="381" y="8"/>
      <point x="367" y="42"/>
      <point x="367" y="130" type="curve" smooth="yes"/>
    </contour>
    <contour>
      <point x="26" y="392"/>
      <point x="67" y="328"/>
      <point x="153" y="328" type="curve" smooth="yes"/>
      <point x="237" y="328"/>
      <point x="279" y="390"/>
      <point x="279" y="467" type="curve" smooth="yes"/>
      <point x="279" y="545"/>
      <point x="236" y="607"/>
      <point x="153" y="607" type="curve" smooth="yes"/>
      <point x="72" y="607"/>
      <point x="26" y="547"/>
      <point x="26" y="467" type="curve" smooth="yes"/>
    </contour>
    <contour>
      <point x="100" y="551"/>
      <point x="114" y="589"/>
      <point x="153" y="589" type="curve" smooth="yes"/>
      <point x="192" y="589"/>
      <point x="206" y="554"/>
      <point x="206" y="468" type="curve" smooth="yes"/>
      <point x="206" y="382"/>
      <point x="192" y="346"/>
      <point x="153" y="346" type="curve" smooth="yes"/>
      <point x="114" y="346"/>
      <point x="100" y="380"/>
      <point x="100" y="468" type="curve" smooth="yes"/>
    </contour>
    <component base="fraction" xOffset="194"/>
  </outline>
</glyph>
<glyph name="ampersand" format="1">
  <advance width="610"/>
  <unicode hex="0026"/>
  <outline>
    <contour>
      <point x="445" y="-10"/>
      <point x="484" y="251"/>
      <point x="493" y="350" type="curve" smooth="yes"/>
      <point x="494" y="365"/>
      <point x="497" y="372"/>
      <point x="506" y="372" type="curve"/>
      <point x="552" y="370" type="line"/>
      <point x="552" y="399" type="line"/>
      <point x="401" y="399" type="line"/>
      <point x="401" y="370" type="line"/>
      <point x="447" y="372" type="line"/>
      <point x="458" y="372"/>
      <point x="461" y="365"/>
      <point x="461" y="340" type="curve" smooth="yes"/>
      <point x="461" y="203"/>
      <point x="374" y="21"/>
      <point x="239" y="21" type="curve" smooth="yes"/>
      <point x="163" y="21"/>
      <point x="111" y="79"/>
      <point x="111" y="166" type="curve" smooth="yes"/>
      <point x="111" y="234"/>
      <point x="142" y="293"/>
      <point x="219" y="344" type="curve"/>
      <point x="205" y="368" type="line"/>
      <point x="74" y="293"/>
      <point x="22" y="244"/>
      <point x="22" y="157" type="curve" smooth="yes"/>
      <point x="22" y="42"/>
      <point x="114" y="-10"/>
      <point x="216" y="-10" type="curve" smooth="yes"/>
    </contour>
    <contour>
      <point x="625" y="0" type="line"/>
      <point x="625" y="28" type="line"/>
      <point x="569" y="26" type="line"/>
      <point x="556" y="26"/>
      <point x="546" y="30"/>
      <point x="539" y="39" type="curve" smooth="yes"/>
      <point x="265" y="412" type="line" smooth="yes"/>
      <point x="237" y="450"/>
      <point x="209" y="489"/>
      <point x="209" y="520" type="curve" smooth="yes"/>
      <point x="209" y="553"/>
      <point x="240" y="575"/>
      <point x="282" y="575" type="curve" smooth="yes"/>
      <point x="325" y="575"/>
      <point x="356" y="551"/>
      <point x="356" y="510" type="curve" smooth="yes"/>
      <point x="356" y="470"/>
      <point x="326" y="433"/>
      <point x="264" y="401" type="curve"/>
      <point x="278" y="378" type="line"/>
      <point x="342" y="412"/>
      <point x="386" y="456"/>
      <point x="386" y="511" type="curve" smooth="yes"/>
      <point x="386" y="562"/>
      <point x="347" y="606"/>
      <point x="271" y="606" type="curve" smooth="yes"/>
      <point x="194" y="606"/>
      <point x="132" y="560"/>
      <point x="132" y="492" type="curve" smooth="yes"/>
      <point x="132" y="450"/>
      <point x="155" y="409"/>
      <point x="185" y="369" type="curve" smooth="yes"/>
      <point x="458" y="0" type="line"/>
    </contour>
  </outline>
</glyph>
<glyph name="quotesingle" format="1">
  <advance width="133"/>
  <unicode hex="0027"/>
  <outline>
    <contour>
      <point x="34" y="571"/>
      <point x="54" y="437"/>
      <point x="54" y="426" type="curve" smooth="yes"/>
      <point x="54" y="417"/>
      <point x="59" y="409"/>
      <point x="67" y="409" type="curve" smooth="yes"/>
      <point x="75" y="409"/>
      <point x="80" y="417"/>
      <point x="80" y="426" type="curve" smooth="yes"/>
      <point x="80" y="437"/>
      <point x="100" y="571"/>
      <point x="100" y="600" type="curve" smooth="yes"/>
      <point x="100" y="625"/>
      <point x="87" y="640"/>
      <point x="67" y="640" type="curve" smooth="yes"/>
      <point x="47" y="640"/>
      <point x="34" y="625"/>
      <point x="34" y="600" type="curve" smooth="yes"/>
    </contour>
  </outline>
</glyph>
<glyph name="parenleft" format="1">
  <advance width="254"/>
  <unicode hex="0028"/>
  <outline>
    <contour>
      <point x="18" y="63"/>
      <point x="96" y="-95"/>
      <point x="211" y="-231" type="curve"/>
      <point x="254" y="-231" type="line"/>
      <point x="163" y="-116"/>
      <point x="112" y="106"/>
      <point x="112" y="240" type="curve" smooth="yes"/>
      <point x="112" y="374"/>
      <point x="163" y="596"/>
      <point x="254" y="711" type="curve"/>
      <point x="211" y="711" type="line"/>
      <point x="96" y="575"/>
      <point x="18" y="417"/>
      <point x="18" y="240" type="curve" smooth="yes"/>
    </contour>
  </outline>
</glyph>
<glyph name="asterisk" format="1">
  <advance width="338"/>
  <unicode hex="002A"/>
  <outline>
    <contour>
      <point x="260" y="530"/>
      <point x="276" y="506"/>
      <point x="230" y="506" type="curve" smooth="yes"/>
      <point x="219" y="506"/>
      <point x="210" y="508"/>
      <point x="203" y="511" type="curve"/>
      <point x="204" y="519"/>
      <point x="206" y="528"/>
      <point x="212" y="538" type="curve" smooth="yes"/>
      <point x="235" y="578"/>
      <point x="247" y="552"/>
      <point x="260" y="573" type="curve"/>
      <point x="264" y="581"/>
      <point x="267" y="588"/>
      <point x="267" y="594" type="curve" smooth="yes"/>
      <point x="267" y="604"/>
      <point x="260" y="612"/>
      <point x="243" y="621" type="curve" smooth="yes"/>
      <point x="233" y="627"/>
      <point x="225" y="630"/>
      <point x="218" y="630" type="curve" smooth="yes"/>
      <point x="209" y="630"/>
      <point x="202" y="624"/>
      <point x="194" y="611" type="curve" smooth="yes"/>
      <point x="186" y="597"/>
      <point x="196" y="593"/>
      <point x="196" y="579" type="curve" smooth="yes"/>
      <point x="196" y="573"/>
      <point x="194" y="565"/>
      <point x="187" y="552" type="curve" smooth="yes"/>
      <point x="182" y="542"/>
      <point x="175" y="536"/>
      <point x="169" y="531" type="curve"/>
      <point x="163" y="536"/>
      <point x="156" y="542"/>
      <point x="151" y="552" type="curve" smooth="yes"/>
      <point x="132" y="584"/>
      <point x="147" y="589"/>
      <point x="147" y="601" type="curve" smooth="yes"/>
      <point x="147" y="604"/>
      <point x="146" y="607"/>
      <point x="144" y="611" type="curve" smooth="yes"/>
      <point x="136" y="624"/>
      <point x="129" y="630"/>
      <point x="120" y="630" type="curve" smooth="yes"/>
      <point x="113" y="630"/>
      <point x="105" y="627"/>
      <point x="95" y="621" type="curve" smooth="yes"/>
      <point x="78" y="612"/>
      <point x="71" y="604"/>
      <point x="71" y="594" type="curve" smooth="yes"/>
      <point x="71" y="588"/>
      <point x="74" y="581"/>
      <point x="78" y="573" type="curve"/>
      <point x="91" y="552"/>
      <point x="103" y="578"/>
      <point x="126" y="538" type="curve" smooth="yes"/>
      <point x="132" y="528"/>
      <point x="135" y="520"/>
      <point x="136" y="512" type="curve"/>
      <point x="129" y="509"/>
      <point x="119" y="506"/>
      <point x="108" y="506" type="curve" smooth="yes"/>
      <point x="62" y="506"/>
      <point x="78" y="530"/>
      <point x="53" y="530" type="curve" smooth="yes"/>
      <point x="28" y="530"/>
      <point x="20" y="521"/>
      <point x="20" y="492" type="curve" smooth="yes"/>
      <point x="20" y="463"/>
      <point x="28" y="454"/>
      <point x="53" y="454" type="curve" smooth="yes"/>
      <point x="78" y="454"/>
      <point x="62" y="478"/>
      <point x="108" y="478" type="curve" smooth="yes"/>
      <point x="119" y="478"/>
      <point x="128" y="476"/>
      <point x="135" y="473" type="curve"/>
      <point x="134" y="465"/>
      <point x="132" y="456"/>
      <point x="126" y="446" type="curve" smooth="yes"/>
      <point x="103" y="406"/>
      <point x="91" y="432"/>
      <point x="78" y="411" type="curve"/>
      <point x="74" y="403"/>
      <point x="71" y="396"/>
      <point x="71" y="390" type="curve" smooth="yes"/>
      <point x="71" y="380"/>
      <point x="78" y="372"/>
      <point x="95" y="363" type="curve" smooth="yes"/>
      <point x="105" y="357"/>
      <point x="113" y="354"/>
      <point x="120" y="354" type="curve" smooth="yes"/>
      <point x="129" y="354"/>
      <point x="136" y="360"/>
      <point x="144" y="373" type="curve" smooth="yes"/>
      <point x="152" y="387"/>
      <point x="142" y="391"/>
      <point x="142" y="405" type="curve" smooth="yes"/>
      <point x="142" y="411"/>
      <point x="144" y="419"/>
      <point x="151" y="432" type="curve" smooth="yes"/>
      <point x="156" y="442"/>
      <point x="163" y="448"/>
      <point x="169" y="453" type="curve"/>
      <point x="175" y="448"/>
      <point x="182" y="442"/>
      <point x="187" y="432" type="curve" smooth="yes"/>
      <point x="206" y="400"/>
      <point x="191" y="395"/>
      <point x="191" y="383" type="curve" smooth="yes"/>
      <point x="191" y="380"/>
      <point x="192" y="377"/>
      <point x="194" y="373" type="curve" smooth="yes"/>
      <point x="202" y="360"/>
      <point x="209" y="354"/>
      <point x="218" y="354" type="curve" smooth="yes"/>
      <point x="225" y="354"/>
      <point x="233" y="357"/>
      <point x="244" y="363" type="curve" smooth="yes"/>
      <point x="260" y="372"/>
      <point x="267" y="380"/>
      <point x="267" y="390" type="curve" smooth="yes"/>
      <point x="267" y="396"/>
      <point x="264" y="403"/>
      <point x="260" y="411" type="curve"/>
      <point x="247" y="432"/>
      <point x="235" y="406"/>
      <point x="212" y="446" type="curve" smooth="yes"/>
      <point x="206" y="456"/>
      <point x="203" y="464"/>
      <point x="202" y="472" type="curve"/>
      <point x="209" y="475"/>
      <point x="219" y="478"/>
      <point x="230" y="478" type="curve" smooth="yes"/>
      <point x="276" y="478"/>
      <point x="260" y="454"/>
      <point x="285" y="454" type="curve" smooth="yes"/>
      <point x="310" y="454"/>
      <point x="318" y="463"/>
      <point x="318" y="492" type="curve" smooth="yes"/>
      <point x="318" y="521"/>
      <point x="310" y="530"/>
      <point x="285" y="530" type="curve" smooth="yes"/>
    </contour>
  </outline>
</glyph>
<glyph name="comma" format="1">
  <advance width="250"/>
  <unicode hex="002C"/>
  <outline>
    <contour>
      <point x="79" y="-160" type="line"/>
      <point x="123" y="-130"/>
      <point x="189" y="-66"/>
      <point x="189" y="8" type="curve" smooth="yes"/>
      <point x="189" y="61"/>
      <point x="166" y="91"/>
      <point x="119" y="91" type="curve" smooth="yes"/>
      <point x="88" y="91"/>
      <point x="61" y="66"/>
      <point x="61" y="38" type="curve" smooth="yes"/>
      <point x="61" y="21"/>
      <point x="66" y="-5"/>
      <point x="93" y="-5" type="curve" smooth="yes"/>
      <point x="113" y="-5"/>
      <point x="129" y="-11"/>
      <point x="129" y="-34" type="curve" smooth="yes"/>
      <point x="129" y="-67"/>
      <point x="91" y="-120"/>
      <point x="60" y="-149" type="curve"/>
    </contour>
  </outline>
</glyph>
<glyph name="period" format="1">
  <advance width="250"/>
  <unicode hex="002E"/>
  <outline>
    <contour>
      <point x="60" y="12"/>
      <point x="88" y="-10"/>
      <point x="125" y="-10" type="curve" smooth="yes"/>
      <point x="162" y="-10"/>
      <point x="190" y="12"/>
      <point x="190" y="47" type="curve" smooth="yes"/>
      <point x="190" y="83"/>
      <point x="162" y="105"/>
      <point x="125" y="105" type="curve" smooth="yes"/>
      <point x="88" y="105"/>
      <point x="60" y="82"/>
      <point x="60" y="47" type="curve" smooth="yes"/>
    </contour>
  </outline>
</glyph>
<glyph name="slash" format="1">
  <advance width="247"/>
  <unicode hex="002F"/>
  <outline>
    <contour>
      <point x="34" y="-5" type="line"/>
      <point x="252" y="626" type="line"/>
      <point x="214" y="635" type="line"/>
      <point x="-5" y="6" type="line"/>
    </contour>
  </outline>
</glyph>
<glyph name="zero" format="1">
  <advance width="538"/>
  <unicode hex="0030"/>
  <outline>
    <contour>
      <point x="30" y="96"/>
      <point x="124" y="-10"/>
      <point x="268" y="-10" type="curve" smooth="yes"/>
      <point x="411" y="-10"/>
      <point x="508" y="92"/>
      <point x="508" y="297" type="curve" smooth="yes"/>
      <point x="508" y="504"/>
      <point x="409" y="607"/>
      <point x="268" y="607" type="curve" smooth="yes"/>
      <point x="130" y="607"/>
      <point x="30" y="508"/>
      <point x="30" y="297" type="curve" smooth="yes"/>
    </contour>
    <contour>
      <point x="119" y="512"/>
      <point x="173" y="580"/>
      <point x="268" y="580" type="curve" smooth="yes"/>
      <point x="365" y="580"/>
      <point x="421" y="519"/>
      <point x="421" y="298" type="curve" smooth="yes"/>
      <point x="421" y="83"/>
      <point x="365" y="20"/>
      <point x="268" y="20" type="curve" smooth="yes"/>
      <point x="173" y="20"/>
      <point x="119" y="78"/>
      <point x="119" y="298" type="curve" smooth="yes"/>
    </contour>
  </outline>
</glyph>
<glyph name="two" format="1">
  <advance width="506"/>
  <unicode hex="0032"/>
  <outline>
    <contour>
      <point x="110" y="607"/>
      <point x="52" y="535"/>
      <point x="52" y="469" type="curve" smooth="yes"/>
      <point x="52" y="433"/>
      <point x="71" y="412"/>
      <point x="102" y="412" type="curve" smooth="yes"/>
      <point x="119" y="412"/>
      <point x="148" y="419"/>
      <point x="148" y="449" type="curve" smooth="yes"/>
      <point x="148" y="468"/>
      <point x="137" y="480"/>
      <point x="137" y="503" type="curve" smooth="yes"/>
      <point x="137" y="552"/>
      <point x="179" y="580"/>
      <point x="238" y="580" type="curve" smooth="yes"/>
      <point x="298" y="580"/>
      <point x="338" y="535"/>
      <point x="338" y="449" type="curve" smooth="yes"/>
      <point x="338" y="333"/>
      <point x="263" y="251"/>
      <point x="164" y="156" type="curve" smooth="yes"/>
      <point x="47" y="45" type="line"/>
      <point x="49" y="0" type="line"/>
      <point x="376" y="0" type="line" smooth="yes"/>
      <point x="393" y="0"/>
      <point x="424" y="-1"/>
      <point x="430" y="-3" type="curve"/>
      <point x="431" y="21"/>
      <point x="437" y="64"/>
      <point x="455" y="165" type="curve"/>
      <point x="419" y="165" type="line"/>
      <point x="411" y="87"/>
      <point x="375" y="66"/>
      <point x="303" y="66" type="curve" smooth="yes"/>
      <point x="92" y="66" type="line"/>
      <point x="92" y="36" type="line"/>
      <point x="242" y="168" type="line" smooth="yes"/>
      <point x="393" y="303"/>
      <point x="428" y="368"/>
      <point x="428" y="445" type="curve" smooth="yes"/>
      <point x="428" y="570"/>
      <point x="340" y="607"/>
      <point x="246" y="607" type="curve" smooth="yes"/>
    </contour>
  </outline>
</glyph>
<glyph name="three" format="1">
  <advance width="498"/>
  <unicode hex="0033"/>
  <outline>
    <contour>
      <point x="326" y="335"/>
      <point x="424" y="395"/>
      <point x="424" y="485" type="curve" smooth="yes"/>
      <point x="424" y="569"/>
      <point x="337" y="607"/>
      <point x="245" y="607" type="curve" smooth="yes"/>
      <point x="142" y="607"/>
      <point x="48" y="557"/>
      <point x="48" y="484" type="curve" smooth="yes"/>
      <point x="48" y="456"/>
      <point x="62" y="432"/>
      <point x="97" y="432" type="curve" smooth="yes"/>
      <point x="120" y="432"/>
      <point x="145" y="443"/>
      <point x="145" y="471" type="curve" smooth="yes"/>
      <point x="145" y="490"/>
      <point x="134" y="501"/>
      <point x="134" y="519" type="curve" smooth="yes"/>
      <point x="134" y="556"/>
      <point x="178" y="580"/>
      <point x="232" y="580" type="curve" smooth="yes"/>
      <point x="304" y="580"/>
      <point x="335" y="540"/>
      <point x="335" y="486" type="curve" smooth="yes"/>
      <point x="335" y="398"/>
      <point x="251" y="340"/>
      <point x="160" y="327" type="curve"/>
      <point x="160" y="299" type="line"/>
      <point x="312" y="294"/>
      <point x="373" y="243"/>
      <point x="373" y="159" type="curve" smooth="yes"/>
      <point x="373" y="88"/>
      <point x="328" y="17"/>
      <point x="225" y="17" type="curve" smooth="yes"/>
      <point x="170" y="17"/>
      <point x="121" y="38"/>
      <point x="121" y="77" type="curve" smooth="yes"/>
      <point x="121" y="96"/>
      <point x="131" y="107"/>
      <point x="131" y="126" type="curve" smooth="yes"/>
      <point x="131" y="149"/>
      <point x="113" y="165"/>
      <point x="84" y="165" type="curve" smooth="yes"/>
      <point x="52" y="165"/>
      <point x="35" y="145"/>
      <point x="35" y="115" type="curve" smooth="yes"/>
      <point x="35" y="48"/>
      <point x="114" y="-10"/>
      <point x="233" y="-10" type="curve" smooth="yes"/>
      <point x="355" y="-10"/>
      <point x="462" y="48"/>
      <point x="462" y="162" type="curve" smooth="yes"/>
      <point x="462" y="260"/>
      <point x="383" y="314"/>
      <point x="218" y="318" type="curve"/>
      <point x="218" y="320" type="line"/>
    </contour>
  </outline>
</glyph>
<glyph name="five" format="1">
  <advance width="492"/>
  <unicode hex="0035"/>
  <outline>
    <contour>
      <point x="418" y="599"/>
      <point x="400" y="597"/>
      <point x="349" y="597" type="curve" smooth="yes"/>
      <point x="91" y="597" type="line"/>
      <point x="70" y="288" type="line"/>
      <point x="97" y="288" type="line"/>
      <point x="121" y="318"/>
      <point x="170" y="341"/>
      <point x="223" y="341" type="curve" smooth="yes"/>
      <point x="308" y="341"/>
      <point x="362" y="281"/>
      <point x="362" y="191" type="curve" smooth="yes"/>
      <point x="362" y="84"/>
      <point x="313" y="17"/>
      <point x="235" y="17" type="curve" smooth="yes"/>
      <point x="183" y="17"/>
      <point x="123" y="37"/>
      <point x="123" y="88" type="curve" smooth="yes"/>
      <point x="123" y="106"/>
      <point x="134" y="115"/>
      <point x="134" y="136" type="curve" smooth="yes"/>
      <point x="134" y="163"/>
      <point x="111" y="175"/>
      <point x="89" y="175" type="curve" smooth="yes"/>
      <point x="59" y="175"/>
      <point x="38" y="160"/>
      <point x="38" y="123" type="curve" smooth="yes"/>
      <point x="38" y="31"/>
      <point x="143" y="-10"/>
      <point x="234" y="-10" type="curve" smooth="yes"/>
      <point x="350" y="-10"/>
      <point x="452" y="63"/>
      <point x="452" y="187" type="curve" smooth="yes"/>
      <point x="452" y="317"/>
      <point x="369" y="382"/>
      <point x="251" y="382" type="curve" smooth="yes"/>
      <point x="192" y="382"/>
      <point x="117" y="352"/>
      <point x="86" y="313" type="curve"/>
      <point x="104" y="317" type="line"/>
      <point x="126" y="575" type="line"/>
      <point x="96" y="531" type="line"/>
      <point x="418" y="531" type="line"/>
      <point x="420" y="553"/>
      <point x="424" y="584"/>
      <point x="432" y="600" type="curve"/>
    </contour>
  </outline>
</glyph>
<glyph name="six" format="1">
  <advance width="485"/>
  <unicode hex="0036"/>
  <outline>
    <contour>
      <point x="45" y="103"/>
      <point x="101" y="-11"/>
      <point x="248" y="-11" type="curve" smooth="yes"/>
      <point x="371" y="-11"/>
      <point x="455" y="70"/>
      <point x="455" y="200" type="curve" smooth="yes"/>
      <point x="455" y="320"/>
      <point x="382" y="399"/>
      <point x="270" y="399" type="curve" smooth="yes"/>
      <point x="189" y="399"/>
      <point x="141" y="355"/>
      <point x="122" y="292" type="curve"/>
      <point x="131" y="302" type="line"/>
      <point x="129" y="450"/>
      <point x="174" y="579"/>
      <point x="271" y="579" type="curve" smooth="yes"/>
      <point x="310" y="579"/>
      <point x="337" y="558"/>
      <point x="337" y="530" type="curve" smooth="yes"/>
      <point x="337" y="514"/>
      <point x="329" y="508"/>
      <point x="329" y="493" type="curve" smooth="yes"/>
      <point x="329" y="470"/>
      <point x="349" y="457"/>
      <point x="374" y="457" type="curve" smooth="yes"/>
      <point x="410" y="457"/>
      <point x="426" y="484"/>
      <point x="426" y="511" type="curve" smooth="yes"/>
      <point x="426" y="554"/>
      <point x="383" y="607"/>
      <point x="282" y="607" type="curve" smooth="yes"/>
      <point x="92" y="607"/>
      <point x="45" y="421"/>
      <point x="45" y="270" type="curve" smooth="yes"/>
    </contour>
    <contour>
      <point x="130" y="294"/>
      <point x="173" y="372"/>
      <point x="256" y="372" type="curve" smooth="yes"/>
      <point x="352" y="372"/>
      <point x="369" y="264"/>
      <point x="369" y="187" type="curve" smooth="yes"/>
      <point x="369" y="81"/>
      <point x="337" y="14"/>
      <point x="258" y="14" type="curve" smooth="yes"/>
      <point x="166" y="14"/>
      <point x="130" y="104"/>
      <point x="130" y="193" type="curve" smooth="yes"/>
    </contour>
  </outline>
</glyph>
<glyph name="equal" format="1">
  <advance width="460"/>
  <unicode hex="003D"/>
  <outline>
    <contour>
      <point x="425" y="103" type="line"/>
      <point x="425" y="146" type="line"/>
      <point x="35" y="146" type="line"/>
      <point x="35" y="103" type="line"/>
    </contour>
    <contour>
      <point x="425" y="302" type="line"/>
      <point x="425" y="345" type="line"/>
      <point x="35" y="345" type="line"/>
      <point x="35" y="302" type="line"/>
    </contour>
  </outline>
</glyph>
<glyph name="C" format="1">
  <advance width="607"/>
  <unicode hex="0043"/>
  <outline>
    <contour>
      <point x="45" y="106"/>
      <point x="158" y="-10"/>
      <point x="340" y="-10" type="curve" smooth="yes"/>
      <point x="427" y="-10"/>
      <point x="501" y="35"/>
      <point x="553" y="35" type="curve" smooth="yes"/>
      <point x="559" y="35" type="line"/>
      <point x="557" y="47"/>
      <point x="556" y="63"/>
      <point x="556" y="82" type="curve" smooth="yes"/>
      <point x="556" y="95"/>
      <point x="557" y="128"/>
      <point x="562" y="167" type="curve"/>
      <point x="534" y="167" type="line"/>
      <point x="515" y="82"/>
      <point x="439" y="17"/>
      <point x="345" y="17" type="curve" smooth="yes"/>
      <point x="225" y="17"/>
      <point x="147" y="131"/>
      <point x="147" y="295" type="curve" smooth="yes"/>
      <point x="147" y="467"/>
      <point x="220" y="582"/>
      <point x="340" y="582" type="curve" smooth="yes"/>
      <point x="430" y="582"/>
      <point x="511" y="515"/>
      <point x="529" y="433" type="curve"/>
      <point x="553" y="433" type="line"/>
      <point x="551" y="435"/>
      <point x="549" y="459"/>
      <point x="549" y="489" type="curve" smooth="yes"/>
      <point x="549" y="513"/>
      <point x="550" y="541"/>
      <point x="553" y="564" type="curve"/>
      <point x="478" y="564"/>
      <point x="448" y="607"/>
      <point x="345" y="607" type="curve" smooth="yes"/>
      <point x="157" y="607"/>
      <point x="45" y="492"/>
      <point x="45" y="295" type="curve" smooth="yes"/>
    </contour>
    <contour>
      <point x="304" y="598" type="move" name="top"/>
    </contour>
    <contour>
      <point x="304" y="0" type="move" name="bottom"/>
    </contour>
  </outline>
</glyph>
<glyph name="D" format="1">
  <advance width="623"/>
  <unicode hex="0044"/>
  <outline>
    <contour>
      <point x="287" y="0" type="line" smooth="yes"/>
      <point x="492" y="0"/>
      <point x="588" y="104"/>
      <point x="588" y="299" type="curve" smooth="yes"/>
      <point x="588" y="516"/>
      <point x="484" y="597"/>
      <point x="275" y="597" type="curve" smooth="yes"/>
      <point x="50" y="597" type="line"/>
      <point x="50" y="567" type="line"/>
      <point x="89" y="569" type="line" smooth="yes"/>
      <point x="102" y="569"/>
      <point x="108" y="559"/>
      <point x="108" y="548" type="curve" smooth="yes"/>
      <point x="108" y="49" type="line" smooth="yes"/>
      <point x="108" y="37"/>
      <point x="104" y="27"/>
      <point x="93" y="27" type="curve" smooth="yes"/>
      <point x="50" y="29" type="line"/>
      <point x="50" y="0" type="line"/>
    </contour>
    <contour>
      <point x="201" y="556" type="line" smooth="yes"/>
      <point x="201" y="565"/>
      <point x="205" y="569"/>
      <point x="213" y="569" type="curve" smooth="yes"/>
      <point x="258" y="569" type="line" smooth="yes"/>
      <point x="423" y="569"/>
      <point x="486" y="494"/>
      <point x="486" y="298" type="curve" smooth="yes"/>
      <point x="486" y="101"/>
      <point x="423" y="28"/>
      <point x="258" y="28" type="curve" smooth="yes"/>
      <point x="213" y="28" type="line" smooth="yes"/>
      <point x="205" y="28"/>
      <point x="201" y="32"/>
      <point x="201" y="41" type="curve" smooth="yes"/>
    </contour>
    <contour>
      <point x="312" y="299" type="move" name="center"/>
    </contour>
    <contour>
      <point x="312" y="598" type="move" name="top"/>
    </contour>
  </outline>
</glyph>
<glyph name="E" format="1">
  <advance width="563"/>
  <unicode hex="0045"/>
  <outline>
    <contour>
      <point x="431" y="0" type="line" smooth="yes"/>
      <point x="474" y="0"/>
      <point x="504" y="-1"/>
      <point x="519" y="-3" type="curve"/>
      <point x="519" y="179" type="line"/>
      <point x="492" y="179" type="line"/>
      <point x="492" y="82"/>
      <point x="444" y="28"/>
      <point x="353" y="28" type="curve" smooth="yes"/>
      <point x="213" y="28" type="line" smooth="yes"/>
      <point x="205" y="28"/>
      <point x="201" y="32"/>
      <point x="201" y="41" type="curve" smooth="yes"/>
      <point x="201" y="297" type="line"/>
      <point x="295" y="297" type="line" smooth="yes"/>
      <point x="336" y="297"/>
      <point x="371" y="255"/>
      <point x="371" y="195" type="curve"/>
      <point x="398" y="195" type="line"/>
      <point x="398" y="426" type="line"/>
      <point x="371" y="426" type="line"/>
      <point x="371" y="362"/>
      <point x="339" y="325"/>
      <point x="295" y="325" type="curve" smooth="yes"/>
      <point x="201" y="325" type="line"/>
      <point x="201" y="555" type="line" smooth="yes"/>
      <point x="201" y="564"/>
      <point x="205" y="569"/>
      <point x="213" y="569" type="curve" smooth="yes"/>
      <point x="320" y="569" type="line" smooth="yes"/>
      <point x="419" y="569"/>
      <point x="462" y="532"/>
      <point x="462" y="443" type="curve"/>
      <point x="489" y="443" type="line"/>
      <point x="489" y="598" type="line"/>
      <point x="486" y="597"/>
      <point x="480" y="597"/>
      <point x="472" y="597" type="curve" smooth="yes"/>
      <point x="451" y="597" type="line"/>
      <point x="50" y="597" type="line"/>
      <point x="50" y="567" type="line"/>
      <point x="88" y="569" type="line" smooth="yes"/>
      <point x="100" y="570"/>
      <point x="108" y="560"/>
      <point x="108" y="548" type="curve" smooth="yes"/>
      <point x="108" y="49" type="line" smooth="yes"/>
      <point x="108" y="34"/>
      <point x="102" y="27"/>
      <point x="90" y="27" type="curve"/>
      <point x="50" y="30" type="line"/>
      <point x="50" y="0" type="line"/>
    </contour>
    <contour>
      <point x="467" y="14" type="move" name="ogonek"/>
    </contour>
    <contour>
      <point x="282" y="0" type="move" name="bottom"/>
    </contour>
    <contour>
      <point x="282" y="598" type="move" name="top"/>
    </contour>
  </outline>
</glyph>
<glyph name="G" format="1">
  <advance width="646"/>
  <unicode hex="0047"/>
  <outline>
    <contour>
      <point x="45" y="91"/>
      <point x="156" y="-10"/>
      <point x="340" y="-10" type="curve" smooth="yes"/>
      <point x="445" y="-10"/>
      <point x="509" y="36"/>
      <point x="553" y="36" type="curve" smooth="yes"/>
      <point x="556" y="36"/>
      <point x="562" y="36"/>
      <point x="566" y="35" type="curve"/>
      <point x="566" y="224" type="line" smooth="yes"/>
      <point x="566" y="235"/>
      <point x="573" y="245"/>
      <point x="585" y="245" type="curve" smooth="yes"/>
      <point x="626" y="243" type="line"/>
      <point x="626" y="272" type="line"/>
      <point x="395" y="272" type="line"/>
      <point x="395" y="243" type="line"/>
      <point x="454" y="245" type="line" smooth="yes"/>
      <point x="467" y="245"/>
      <point x="473" y="238"/>
      <point x="473" y="223" type="curve" smooth="yes"/>
      <point x="473" y="63" type="line"/>
      <point x="436" y="27"/>
      <point x="404" y="17"/>
      <point x="345" y="17" type="curve" smooth="yes"/>
      <point x="221" y="17"/>
      <point x="147" y="100"/>
      <point x="147" y="295" type="curve" smooth="yes"/>
      <point x="147" y="490"/>
      <point x="229" y="582"/>
      <point x="340" y="582" type="curve" smooth="yes"/>
      <point x="455" y="582"/>
      <point x="514" y="530"/>
      <point x="514" y="448" type="curve" smooth="yes"/>
      <point x="514" y="443"/>
      <point x="514" y="438"/>
      <point x="513" y="433" type="curve"/>
      <point x="553" y="433" type="line"/>
      <point x="552" y="454"/>
      <point x="549" y="472"/>
      <point x="549" y="495" type="curve"/>
      <point x="549" y="526"/>
      <point x="550" y="549"/>
      <point x="553" y="564" type="curve"/>
      <point x="509" y="564"/>
      <point x="457" y="607"/>
      <point x="345" y="607" type="curve" smooth="yes"/>
      <point x="154" y="607"/>
      <point x="45" y="503"/>
      <point x="45" y="295" type="curve" smooth="yes"/>
    </contour>
    <contour>
      <point x="323" y="598" type="move" name="top"/>
    </contour>
    <contour>
      <point x="323" y="0" type="move" name="bottom"/>
    </contour>
  </outline>
</glyph>
<glyph name="H" format="1">
  <advance width="696"/>
  <unicode hex="0048"/>
  <outline>
    <contour>
      <point x="270" y="0" type="line"/>
      <point x="270" y="29" type="line"/>
      <point x="221" y="27" type="line" smooth="yes"/>
      <point x="208" y="27"/>
      <point x="201" y="34"/>
      <point x="201" y="49" type="curve" smooth="yes"/>
      <point x="201" y="294" type="line"/>
      <point x="495" y="294" type="line"/>
      <point x="495" y="49" type="line" smooth="yes"/>
      <point x="495" y="34"/>
      <point x="489" y="27"/>
      <point x="476" y="27" type="curve" smooth="yes"/>
      <point x="427" y="29" type="line"/>
      <point x="427" y="0" type="line"/>
      <point x="646" y="0" type="line"/>
      <point x="646" y="29" type="line"/>
      <point x="607" y="27" type="line" smooth="yes"/>
      <point x="594" y="27"/>
      <point x="588" y="34"/>
      <point x="588" y="49" type="curve" smooth="yes"/>
      <point x="588" y="548" type="line" smooth="yes"/>
      <point x="588" y="560"/>
      <point x="594" y="570"/>
      <point x="607" y="569" type="curve" smooth="yes"/>
      <point x="646" y="567" type="line"/>
      <point x="646" y="597" type="line"/>
      <point x="427" y="597" type="line"/>
      <point x="427" y="567" type="line"/>
      <point x="476" y="569" type="line" smooth="yes"/>
      <point x="491" y="570"/>
      <point x="495" y="559"/>
      <point x="495" y="548" type="curve" smooth="yes"/>
      <point x="495" y="322" type="line"/>
      <point x="201" y="322" type="line"/>
      <point x="201" y="548" type="line" smooth="yes"/>
      <point x="201" y="560"/>
      <point x="208" y="570"/>
      <point x="221" y="569" type="curve" smooth="yes"/>
      <point x="270" y="567" type="line"/>
      <point x="270" y="597" type="line"/>
      <point x="50" y="597" type="line"/>
      <point x="50" y="567" type="line"/>
      <point x="89" y="569" type="line" smooth="yes"/>
      <point x="104" y="570"/>
      <point x="108" y="559"/>
      <point x="108" y="548" type="curve" smooth="yes"/>
      <point x="108" y="49" type="line" smooth="yes"/>
      <point x="108" y="34"/>
      <point x="102" y="27"/>
      <point x="89" y="27" type="curve" smooth="yes"/>
      <point x="50" y="29" type="line"/>
      <point x="50" y="0" type="line"/>
    </contour>
    <contour>
      <point x="348" y="299" type="move" name="center"/>
    </contour>
    <contour>
      <point x="348" y="598" type="move" name="top"/>
    </contour>
  </outline>
</glyph>
<glyph name="I" format="1">
  <advance width="310"/>
  <unicode hex="0049"/>
  <outline>
    <contour>
      <point x="260" y="0" type="line"/>
      <point x="260" y="29" type="line"/>
      <point x="221" y="27" type="line" smooth="yes"/>
      <point x="208" y="27"/>
      <point x="201" y="34"/>
      <point x="201" y="49" type="curve" smooth="yes"/>
      <point x="201" y="548" type="line" smooth="yes"/>
      <point x="201" y="560"/>
      <point x="209" y="570"/>
      <point x="221" y="569" type="curve" smooth="yes"/>
      <point x="260" y="567" type="line"/>
      <point x="260" y="597" type="line"/>
      <point x="50" y="597" type="line"/>
      <point x="50" y="567" type="line"/>
      <point x="89" y="569" type="line" smooth="yes"/>
      <point x="102" y="570"/>
      <point x="108" y="559"/>
      <point x="108" y="548" type="curve" smooth="yes"/>
      <point x="108" y="49" type="line" smooth="yes"/>
      <point x="108" y="34"/>
      <point x="102" y="27"/>
      <point x="89" y="27" type="curve" smooth="yes"/>
      <point x="50" y="29" type="line"/>
      <point x="50" y="0" type="line"/>
    </contour>
    <contour>
      <point x="219" y="14" type="move" name="ogonek"/>
    </contour>
    <contour>
      <point x="155" y="598" type="move" name="top"/>
    </contour>
  </outline>
</glyph>
<glyph name="K" format="1">
  <advance width="617"/>
  <unicode hex="004B"/>
  <outline>
    <contour>
      <point x="201" y="547" type="line"/>
      <point x="201" y="562"/>
      <point x="208" y="569"/>
      <point x="221" y="569" type="curve" smooth="yes"/>
      <point x="270" y="567" type="line"/>
      <point x="270" y="597" type="line"/>
      <point x="50" y="597" type="line"/>
      <point x="50" y="567" type="line"/>
      <point x="89" y="569" type="line" smooth="yes"/>
      <point x="102" y="570"/>
      <point x="108" y="560"/>
      <point x="108" y="548" type="curve" smooth="yes"/>
      <point x="108" y="49" type="line" smooth="yes"/>
      <point x="108" y="34"/>
      <point x="102" y="27"/>
      <point x="89" y="27" type="curve" smooth="yes"/>
      <point x="50" y="29" type="line"/>
      <point x="50" y="0" type="line"/>
      <point x="270" y="0" type="line"/>
      <point x="270" y="29" type="line"/>
      <point x="221" y="27" type="line" smooth="yes"/>
      <point x="208" y="27"/>
      <point x="201" y="34"/>
      <point x="201" y="49" type="curve"/>
    </contour>
    <contour>
      <point x="250" y="309" type="line"/>
      <point x="440" y="52" type="line"/>
      <point x="452" y="33"/>
      <point x="442" y="26"/>
      <point x="425" y="27" type="curve" smooth="yes"/>
      <point x="374" y="30" type="line"/>
      <point x="374" y="0" type="line"/>
      <point x="611" y="0" type="line"/>
      <point x="611" y="30" type="line"/>
      <point x="605" y="29"/>
      <point x="588" y="27"/>
      <point x="577" y="27" type="curve" smooth="yes"/>
      <point x="568" y="27"/>
      <point x="560" y="32"/>
      <point x="553" y="41" type="curve" smooth="yes"/>
      <point x="306" y="376" type="line"/>
    </contour>
    <contour>
      <point x="467" y="540" type="line" smooth="yes"/>
      <point x="490" y="565"/>
      <point x="505" y="570"/>
      <point x="525" y="569" type="curve" smooth="yes"/>
      <point x="559" y="567" type="line"/>
      <point x="559" y="597" type="line"/>
      <point x="381" y="597" type="line"/>
      <point x="381" y="567" type="line"/>
      <point x="423" y="569" type="line" smooth="yes"/>
      <point x="430" y="569"/>
      <point x="433" y="566"/>
      <point x="433" y="560" type="curve" smooth="yes"/>
      <point x="433" y="557"/>
      <point x="432" y="552"/>
      <point x="416" y="533" type="curve" smooth="yes"/>
      <point x="194" y="270" type="line"/>
      <point x="194" y="226" type="line"/>
    </contour>
    <contour>
      <point x="309" y="598" type="move" name="top"/>
    </contour>
    <contour>
      <point x="309" y="0" type="move" name="bottom"/>
    </contour>
  </outline>
</glyph>
<glyph name="N" format="1">
  <advance width="662"/>
  <unicode hex="004E"/>
  <outline>
    <contour>
      <point x="104" y="558" type="line"/>
      <point x="104" y="49" type="line" smooth="yes"/>
      <point x="104" y="34"/>
      <point x="97" y="27"/>
      <point x="84" y="27" type="curve" smooth="yes"/>
      <point x="45" y="29" type="line"/>
      <point x="45" y="0" type="line"/>
      <point x="206" y="0" type="line"/>
      <point x="206" y="29" type="line"/>
      <point x="157" y="27" type="line" smooth="yes"/>
      <point x="144" y="27"/>
      <point x="138" y="34"/>
      <point x="138" y="49" type="curve" smooth="yes"/>
      <point x="138" y="535" type="line"/>
    </contour>
    <contour>
      <point x="532" y="145" type="line"/>
      <point x="200" y="597" type="line"/>
      <point x="45" y="597" type="line"/>
      <point x="45" y="567" type="line"/>
      <point x="84" y="569" type="line" smooth="yes"/>
      <point x="97" y="570"/>
      <point x="104" y="559"/>
      <point x="104" y="548" type="curve"/>
      <point x="132" y="533" type="line"/>
      <point x="529" y="-6" type="line"/>
    </contour>
    <contour>
      <point x="529" y="-6" type="line"/>
      <point x="559" y="-6" type="line"/>
      <point x="559" y="548" type="line" smooth="yes"/>
      <point x="559" y="562"/>
      <point x="565" y="569"/>
      <point x="576" y="569" type="curve" smooth="yes"/>
      <point x="578" y="569" type="line"/>
      <point x="617" y="567" type="line"/>
      <point x="617" y="597" type="line"/>
      <point x="456" y="597" type="line"/>
      <point x="456" y="567" type="line"/>
      <point x="505" y="569" type="line"/>
      <point x="508" y="569" type="line" smooth="yes"/>
      <point x="519" y="569"/>
      <point x="525" y="562"/>
      <point x="525" y="549" type="curve" smooth="yes"/>
      <point x="525" y="143" type="line"/>
    </contour>
    <contour>
      <point x="331" y="598" type="move" name="top"/>
    </contour>
    <contour>
      <point x="331" y="0" type="move" name="bottom"/>
    </contour>
  </outline>
</glyph>
<glyph name="O" format="1">
  <advance width="670"/>
  <unicode hex="004F"/>
  <outline>
    <contour>
      <point x="45" y="103"/>
      <point x="152" y="-10"/>
      <point x="335" y="-10" type="curve" smooth="yes"/>
      <point x="518" y="-10"/>
      <point x="625" y="103"/>
      <point x="625" y="299" type="curve" smooth="yes"/>
      <point x="625" y="493"/>
      <point x="522" y="607"/>
      <point x="335" y="607" type="curve" smooth="yes"/>
      <point x="154" y="607"/>
      <point x="45" y="499"/>
      <point x="45" y="299" type="curve" smooth="yes"/>
    </contour>
    <contour>
      <point x="147" y="501"/>
      <point x="207" y="580"/>
      <point x="335" y="580" type="curve" smooth="yes"/>
      <point x="463" y="580"/>
      <point x="523" y="501"/>
      <point x="523" y="299" type="curve" smooth="yes"/>
      <point x="523" y="96"/>
      <point x="463" y="17"/>
      <point x="335" y="17" type="curve" smooth="yes"/>
      <point x="207" y="17"/>
      <point x="147" y="96"/>
      <point x="147" y="299" type="curve" smooth="yes"/>
    </contour>
    <contour>
      <point x="335" y="598" type="move" name="top"/>
    </contour>
  </outline>
</glyph>
<glyph name="R" format="1">
  <advance width="581"/>
  <unicode hex="0052"/>
  <outline>
    <contour>
      <point x="270" y="0" type="line"/>
      <point x="270" y="29" type="line"/>
      <point x="221" y="27" type="line" smooth="yes"/>
      <point x="208" y="27"/>
      <point x="201" y="34"/>
      <point x="201" y="49" type="curve" smooth="yes"/>
      <point x="201" y="286" type="line"/>
      <point x="243" y="286" type="line" smooth="yes"/>
      <point x="326" y="286"/>
      <point x="410" y="245"/>
      <point x="410" y="137" type="curve" smooth="yes"/>
      <point x="410" y="104" type="line" smooth="yes"/>
      <point x="410" y="92"/>
      <point x="411" y="79"/>
      <point x="412" y="66" type="curve" smooth="yes"/>
      <point x="413" y="39"/>
      <point x="418" y="16"/>
      <point x="426" y="0" type="curve"/>
      <point x="562" y="0" type="line"/>
      <point x="562" y="30" type="line"/>
      <point x="554" y="25"/>
      <point x="537" y="25"/>
      <point x="529" y="28" type="curve"/>
      <point x="509" y="31"/>
      <point x="500" y="89"/>
      <point x="500" y="122" type="curve" smooth="yes"/>
      <point x="500" y="235"/>
      <point x="423" y="297"/>
      <point x="364" y="297" type="curve"/>
      <point x="436" y="316"/>
      <point x="486" y="369"/>
      <point x="486" y="438" type="curve" smooth="yes"/>
      <point x="486" y="550"/>
      <point x="423" y="597"/>
      <point x="275" y="597" type="curve" smooth="yes"/>
      <point x="50" y="597" type="line"/>
      <point x="50" y="567" type="line"/>
      <point x="86" y="569" type="line" smooth="yes"/>
      <point x="102" y="570"/>
      <point x="108" y="559"/>
      <point x="108" y="548" type="curve" smooth="yes"/>
      <point x="108" y="49" type="line" smooth="yes"/>
      <point x="108" y="34"/>
      <point x="102" y="27"/>
      <point x="89" y="27" type="curve" smooth="yes"/>
      <point x="50" y="29" type="line"/>
      <point x="50" y="0" type="line"/>
    </contour>
    <contour>
      <point x="201" y="559" type="line" smooth="yes"/>
      <point x="201" y="566"/>
      <point x="205" y="569"/>
      <point x="213" y="569" type="curve" smooth="yes"/>
      <point x="275" y="569" type="line" smooth="yes"/>
      <point x="355" y="569"/>
      <point x="392" y="530"/>
      <point x="392" y="438" type="curve" smooth="yes"/>
      <point x="392" y="358"/>
      <point x="354" y="313"/>
      <point x="294" y="313" type="curve" smooth="yes"/>
      <point x="201" y="313" type="line"/>
    </contour>
    <contour>
      <point x="291" y="598" type="move" name="top"/>
    </contour>
    <contour>
      <point x="291" y="0" type="move" name="bottom"/>
    </contour>
  </outline>
</glyph>
<glyph name="U" format="1">
  <advance width="651"/>
  <unicode hex="0055"/>
  <outline>
    <contour>
      <point x="73" y="569" type="line" smooth="yes"/>
      <point x="84" y="570"/>
      <point x="92" y="559"/>
      <point x="92" y="548" type="curve" smooth="yes"/>
      <point x="92" y="199" type="line" smooth="yes"/>
      <point x="92" y="62"/>
      <point x="183" y="-10"/>
      <point x="344" y="-10" type="curve" smooth="yes"/>
      <point x="473" y="-10"/>
      <point x="567" y="74"/>
      <point x="567" y="189" type="curve" smooth="yes"/>
      <point x="567" y="549" type="line" smooth="yes"/>
      <point x="567" y="561"/>
      <point x="575" y="570"/>
      <point x="587" y="569" type="curve" smooth="yes"/>
      <point x="626" y="567" type="line"/>
      <point x="626" y="597" type="line"/>
      <point x="465" y="597" type="line"/>
      <point x="465" y="567" type="line"/>
      <point x="514" y="569" type="line" smooth="yes"/>
      <point x="525" y="570"/>
      <point x="532" y="561"/>
      <point x="532" y="548" type="curve" smooth="yes"/>
      <point x="532" y="198" type="line" smooth="yes"/>
      <point x="532" y="97"/>
      <point x="460" y="21"/>
      <point x="362" y="21" type="curve" smooth="yes"/>
      <point x="250" y="21"/>
      <point x="185" y="87"/>
      <point x="185" y="199" type="curve" smooth="yes"/>
      <point x="185" y="549" type="line" smooth="yes"/>
      <point x="185" y="561"/>
      <point x="193" y="570"/>
      <point x="205" y="569" type="curve" smooth="yes"/>
      <point x="254" y="567" type="line"/>
      <point x="254" y="597" type="line"/>
      <point x="35" y="597" type="line"/>
      <point x="35" y="567" type="line"/>
    </contour>
    <contour>
      <point x="455" y="14" type="move" name="ogonek"/>
    </contour>
    <contour>
      <point x="336" y="598" type="move" name="top"/>
    </contour>
  </outline>
</glyph>
<glyph name="W" format="1">
  <advance width="884"/>
  <unicode hex="0057"/>
  <outline>
    <contour>
      <point x="434" y="538" type="line"/>
      <point x="652" y="-10" type="line"/>
      <point x="668" y="-10" type="line"/>
      <point x="849" y="548" type="line" smooth="yes"/>
      <point x="852" y="557"/>
      <point x="861" y="570"/>
      <point x="874" y="569" type="curve" smooth="yes"/>
      <point x="904" y="567" type="line"/>
      <point x="904" y="597" type="line"/>
      <point x="751" y="597" type="line"/>
      <point x="751" y="567" type="line"/>
      <point x="803" y="569" type="line" smooth="yes"/>
      <point x="814" y="570"/>
      <point x="818" y="560"/>
      <point x="814" y="549" type="curve" smooth="yes"/>
      <point x="679" y="126" type="line"/>
      <point x="691" y="126" type="line"/>
      <point x="521" y="547" type="line" smooth="yes"/>
      <point x="518" y="555"/>
      <point x="520" y="569"/>
      <point x="531" y="569" type="curve" smooth="yes"/>
      <point x="573" y="567" type="line"/>
      <point x="573" y="597" type="line"/>
      <point x="365" y="597" type="line"/>
      <point x="365" y="567" type="line"/>
      <point x="406" y="569" type="line" smooth="yes"/>
      <point x="418" y="570"/>
      <point x="423" y="566"/>
      <point x="431" y="547" type="curve"/>
    </contour>
    <contour>
      <point x="429" y="564" type="line"/>
      <point x="292" y="139" type="line"/>
      <point x="303" y="139" type="line"/>
      <point x="148" y="547" type="line" smooth="yes"/>
      <point x="146" y="553"/>
      <point x="145" y="557"/>
      <point x="145" y="558" type="curve" smooth="yes"/>
      <point x="145" y="567"/>
      <point x="149" y="569"/>
      <point x="158" y="569" type="curve" smooth="yes"/>
      <point x="211" y="567" type="line"/>
      <point x="211" y="597" type="line"/>
      <point x="-5" y="597" type="line"/>
      <point x="-5" y="567" type="line"/>
      <point x="25" y="569" type="line" smooth="yes"/>
      <point x="34" y="569"/>
      <point x="41" y="562"/>
      <point x="46" y="547" type="curve" smooth="yes"/>
      <point x="257" y="-10" type="line"/>
      <point x="276" y="-10" type="line"/>
      <point x="460" y="553" type="line"/>
    </contour>
    <contour>
      <point x="462" y="598" type="move" name="top"/>
    </contour>
  </outline>
</glyph>
<glyph name="X" format="1">
  <advance width="566"/>
  <unicode hex="0058"/>
  <outline>
    <contour>
      <point x="326" y="351" type="line"/>
      <point x="211" y="548" type="line"/>
      <point x="204" y="557"/>
      <point x="208" y="570"/>
      <point x="225" y="569" type="curve" smooth="yes"/>
      <point x="267" y="567" type="line"/>
      <point x="267" y="597" type="line"/>
      <point x="39" y="597" type="line"/>
      <point x="39" y="567" type="line"/>
      <point x="71" y="569" type="line" smooth="yes"/>
      <point x="82" y="569"/>
      <point x="95" y="565"/>
      <point x="103" y="550" type="curve"/>
      <point x="260" y="287" type="line"/>
    </contour>
    <contour>
      <point x="334" y="319" type="line"/>
      <point x="478" y="549" type="line"/>
      <point x="487" y="562"/>
      <point x="497" y="569"/>
      <point x="509" y="569" type="curve" smooth="yes"/>
      <point x="540" y="567" type="line"/>
      <point x="540" y="597" type="line"/>
      <point x="388" y="597" type="line"/>
      <point x="388" y="567" type="line"/>
      <point x="431" y="569" type="line" smooth="yes"/>
      <point x="446" y="570"/>
      <point x="446" y="560"/>
      <point x="439" y="549" type="curve" smooth="yes"/>
      <point x="314" y="352" type="line"/>
      <point x="260" y="305" type="line"/>
      <point x="100" y="50" type="line" smooth="yes"/>
      <point x="91" y="35"/>
      <point x="80" y="28"/>
      <point x="66" y="28" type="curve" smooth="yes"/>
      <point x="30" y="30" type="line"/>
      <point x="30" y="0" type="line"/>
      <point x="189" y="0" type="line"/>
      <point x="189" y="30" type="line"/>
      <point x="144" y="27" type="line" smooth="yes"/>
      <point x="136" y="26"/>
      <point x="131" y="35"/>
      <point x="138" y="47" type="curve" smooth="yes"/>
      <point x="279" y="272" type="line"/>
    </contour>
    <contour>
      <point x="267" y="272" type="line"/>
      <point x="399" y="50" type="line"/>
      <point x="407" y="39"/>
      <point x="407" y="26"/>
      <point x="392" y="27" type="curve" smooth="yes"/>
      <point x="343" y="30" type="line"/>
      <point x="343" y="0" type="line"/>
      <point x="578" y="0" type="line"/>
      <point x="578" y="30" type="line"/>
      <point x="539" y="27" type="line" smooth="yes"/>
      <point x="524" y="26"/>
      <point x="514" y="35"/>
      <point x="509" y="44" type="curve" smooth="yes"/>
      <point x="334" y="337" type="line"/>
    </contour>
  </outline>
</glyph>
<glyph name="Y" format="1">
  <advance width="507"/>
  <unicode hex="0059"/>
  <outline>
    <contour>
      <point x="298" y="309" type="line"/>
      <point x="156" y="545" type="line" smooth="yes"/>
      <point x="149" y="556"/>
      <point x="148" y="570"/>
      <point x="163" y="569" type="curve" smooth="yes"/>
      <point x="216" y="567" type="line"/>
      <point x="216" y="597" type="line"/>
      <point x="-5" y="597" type="line"/>
      <point x="-5" y="567" type="line"/>
      <point x="23" y="569"/>
      <point x="23" y="569"/>
      <point x="23" y="569" type="curve"/>
      <point x="32" y="569"/>
      <point x="40" y="563"/>
      <point x="47" y="550" type="curve" smooth="yes"/>
      <point x="220" y="263" type="line"/>
      <point x="220" y="49" type="line" smooth="yes"/>
      <point x="220" y="34"/>
      <point x="214" y="27"/>
      <point x="201" y="27" type="curve" smooth="yes"/>
      <point x="152" y="29" type="line"/>
      <point x="152" y="0" type="line"/>
      <point x="381" y="0" type="line"/>
      <point x="381" y="29" type="line"/>
      <point x="333" y="27" type="line" smooth="yes"/>
      <point x="318" y="27"/>
      <point x="313" y="36"/>
      <point x="313" y="48" type="curve" smooth="yes"/>
      <point x="313" y="309" type="line"/>
    </contour>
    <contour>
      <point x="309" y="280" type="line"/>
      <point x="459" y="548" type="line" smooth="yes"/>
      <point x="467" y="562"/>
      <point x="476" y="569"/>
      <point x="487" y="569" type="curve" smooth="yes"/>
      <point x="487" y="569"/>
      <point x="487" y="569"/>
      <point x="517" y="567" type="curve"/>
      <point x="517" y="597" type="line"/>
      <point x="365" y="597" type="line"/>
      <point x="365" y="567" type="line"/>
      <point x="417" y="569" type="line" smooth="yes"/>
      <point x="429" y="569"/>
      <point x="428" y="557"/>
      <point x="424" y="549" type="curve" smooth="yes"/>
      <point x="289" y="309" type="line"/>
    </contour>
    <contour>
      <point x="264" y="598" type="move" name="top"/>
    </contour>
  </outline>
</glyph>
<glyph name="bracketleft" format="1">
  <advance width="256"/>
  <unicode hex="005B"/>
  <outline>
    <contour>
      <point x="223" y="-147" type="line"/>
      <point x="223" y="-120" type="line"/>
      <point x="119" y="-120" type="line"/>
      <point x="119" y="648" type="line"/>
      <point x="223" y="648" type="line"/>
      <point x="223" y="675" type="line"/>
      <point x="46" y="675" type="line"/>
      <point x="46" y="-147" type="line"/>
    </contour>
  </outline>
</glyph>
<glyph name="backslash" format="1">
  <advance width="248"/>
  <unicode hex="005C"/>
  <outline>
    <contour>
      <point x="210" y="-5" type="line"/>
      <point x="250" y="6" type="line"/>
      <point x="31" y="635" type="line"/>
      <point x="-8" y="626" type="line"/>
    </contour>
  </outline>
</glyph>
<glyph name="b" format="1">
  <advance width="481"/>
  <unicode hex="0062"/>
  <outline>
    <contour>
      <point x="57" y="707" type="line" smooth="yes"/>
      <point x="66" y="707"/>
      <point x="70" y="700"/>
      <point x="70" y="687" type="curve" smooth="yes"/>
      <point x="70" y="-5" type="line"/>
      <point x="103" y="-5" type="line"/>
      <point x="103" y="34"/>
      <point x="112" y="61"/>
      <point x="131" y="61" type="curve" smooth="yes"/>
      <point x="140" y="61"/>
      <point x="146" y="58"/>
      <point x="149" y="52" type="curve"/>
      <point x="172" y="21"/>
      <point x="197" y="-10"/>
      <point x="271" y="-10" type="curve" smooth="yes"/>
      <point x="400" y="-10"/>
      <point x="461" y="64"/>
      <point x="461" y="209" type="curve" smooth="yes"/>
      <point x="461" y="354"/>
      <point x="405" y="430"/>
      <point x="288" y="430" type="curve" smooth="yes"/>
      <point x="221" y="430"/>
      <point x="180" y="397"/>
      <point x="157" y="342" type="curve"/>
      <point x="157" y="730" type="line"/>
      <point x="21" y="730" type="line"/>
      <point x="21" y="705" type="line"/>
    </contour>
    <contour>
      <point x="159" y="226" type="line" smooth="yes"/>
      <point x="159" y="333"/>
      <point x="201" y="403"/>
      <point x="277" y="403" type="curve" smooth="yes"/>
      <point x="352" y="403"/>
      <point x="370" y="359"/>
      <point x="370" y="209" type="curve" smooth="yes"/>
      <point x="370" y="63"/>
      <point x="347" y="17"/>
      <point x="271" y="17" type="curve" smooth="yes"/>
      <point x="186" y="17"/>
      <point x="159" y="86"/>
      <point x="159" y="184" type="curve" smooth="yes"/>
    </contour>
  </outline>
</glyph>
<glyph name="e" format="1">
  <advance width="449"/>
  <unicode hex="0065"/>
  <outline>
    <contour>
      <point x="104" y="430"/>
      <point x="35" y="354"/>
      <point x="35" y="209" type="curve" smooth="yes"/>
      <point x="35" y="68"/>
      <point x="97" y="-10"/>
      <point x="238" y="-10" type="curve" smooth="yes"/>
      <point x="312" y="-10"/>
      <point x="383" y="28"/>
      <point x="410" y="93" type="curve"/>
      <point x="387" y="110" type="line"/>
      <point x="368" y="67"/>
      <point x="324" y="23"/>
      <point x="252" y="23" type="curve" smooth="yes"/>
      <point x="168" y="24"/>
      <point x="126" y="91"/>
      <point x="126" y="212" type="curve"/>
      <point x="414" y="212" type="line"/>
      <point x="414" y="241" type="line"/>
      <point x="411" y="360"/>
      <point x="341" y="430"/>
      <point x="236" y="430" type="curve" smooth="yes"/>
    </contour>
    <contour>
      <point x="304" y="403"/>
      <point x="329" y="359"/>
      <point x="329" y="270" type="curve" smooth="yes"/>
      <point x="329" y="243"/>
      <point x="321" y="237"/>
      <point x="309" y="237" type="curve" smooth="yes"/>
      <point x="127" y="237" type="line"/>
      <point x="127" y="327"/>
      <point x="156" y="403"/>
      <point x="236" y="403" type="curve" smooth="yes"/>
    </contour>
    <contour>
      <point x="336" y="14" type="move" name="ogonek"/>
    </contour>
    <contour>
      <point x="225" y="0" type="move" name="bottom"/>
    </contour>
    <contour>
      <point x="225" y="420" type="move" name="top"/>
    </contour>
  </outline>
</glyph>
<glyph name="f" format="1">
  <advance width="296"/>
  <unicode hex="0066"/>
  <outline>
    <contour>
      <point x="250" y="0" type="line"/>
      <point x="250" y="26" type="line"/>
      <point x="184" y="24" type="line" smooth="yes"/>
      <point x="175" y="24"/>
      <point x="171" y="30"/>
      <point x="171" y="43" type="curve" smooth="yes"/>
      <point x="171" y="395" type="line"/>
      <point x="277" y="395" type="line"/>
      <point x="277" y="420" type="line"/>
      <point x="170" y="420" type="line"/>
      <point x="170" y="449" type="line" smooth="yes"/>
      <point x="170" y="490"/>
      <point x="164" y="553"/>
      <point x="164" y="589" type="curve" smooth="yes"/>
      <point x="164" y="690"/>
      <point x="214" y="709"/>
      <point x="252" y="709" type="curve" smooth="yes"/>
      <point x="287" y="709"/>
      <point x="303" y="684"/>
      <point x="303" y="657" type="curve" smooth="yes"/>
      <point x="303" y="638"/>
      <point x="294" y="629"/>
      <point x="294" y="613" type="curve" smooth="yes"/>
      <point x="294" y="593"/>
      <point x="308" y="584"/>
      <point x="329" y="584" type="curve" smooth="yes"/>
      <point x="363" y="584"/>
      <point x="377" y="607"/>
      <point x="377" y="633" type="curve" smooth="yes"/>
      <point x="377" y="692"/>
      <point x="320" y="736"/>
      <point x="259" y="736" type="curve" smooth="yes"/>
      <point x="110" y="736"/>
      <point x="85" y="597"/>
      <point x="85" y="486" type="curve" smooth="yes"/>
      <point x="85" y="420" type="line"/>
      <point x="46" y="420" type="line"/>
      <point x="46" y="395" type="line"/>
      <point x="85" y="395" type="line"/>
      <point x="85" y="43" type="line" smooth="yes"/>
      <point x="85" y="30"/>
      <point x="81" y="24"/>
      <point x="72" y="24" type="curve"/>
      <point x="35" y="26" type="line"/>
      <point x="35" y="0" type="line"/>
    </contour>
  </outline>
</glyph>
<glyph name="g" format="1">
  <advance width="460"/>
  <unicode hex="0067"/>
  <outline>
    <contour>
      <point x="95" y="138" type="line" smooth="yes"/>
      <point x="65" y="114"/>
      <point x="48" y="99"/>
      <point x="48" y="71" type="curve" smooth="yes"/>
      <point x="48" y="18"/>
      <point x="106" y="0"/>
      <point x="189" y="0" type="curve"/>
      <point x="289" y="0" type="line" smooth="yes"/>
      <point x="357" y="0"/>
      <point x="387" y="-26"/>
      <point x="387" y="-81" type="curve" smooth="yes"/>
      <point x="387" y="-162"/>
      <point x="327" y="-219"/>
      <point x="214" y="-219" type="curve" smooth="yes"/>
      <point x="123" y="-219"/>
      <point x="81" y="-173"/>
      <point x="81" y="-110" type="curve" smooth="yes"/>
      <point x="81" y="-55"/>
      <point x="129" y="0"/>
      <point x="189" y="0" type="curve"/>
      <point x="134" y="11" type="line"/>
      <point x="70" y="-17"/>
      <point x="32" y="-52"/>
      <point x="32" y="-112" type="curve" smooth="yes"/>
      <point x="32" y="-199"/>
      <point x="98" y="-245"/>
      <point x="215" y="-245" type="curve" smooth="yes"/>
      <point x="359" y="-245"/>
      <point x="453" y="-178"/>
      <point x="453" y="-74" type="curve" smooth="yes"/>
      <point x="453" y="29"/>
      <point x="399" y="65"/>
      <point x="304" y="65" type="curve" smooth="yes"/>
      <point x="171" y="65" type="line" smooth="yes"/>
      <point x="134" y="65"/>
      <point x="115" y="77"/>
      <point x="115" y="102" type="curve" smooth="yes"/>
      <point x="115" y="121"/>
      <point x="132" y="136"/>
      <point x="157" y="151" type="curve"/>
      <point x="129" y="166" type="line"/>
    </contour>
    <contour>
      <point x="290" y="403"/>
      <point x="309" y="368"/>
      <point x="309" y="280" type="curve" smooth="yes"/>
      <point x="309" y="191"/>
      <point x="291" y="154"/>
      <point x="227" y="154" type="curve" smooth="yes"/>
      <point x="163" y="154"/>
      <point x="146" y="185"/>
      <point x="146" y="280" type="curve" smooth="yes"/>
      <point x="146" y="373"/>
      <point x="166" y="403"/>
      <point x="227" y="403" type="curve" smooth="yes"/>
    </contour>
    <contour>
      <point x="127" y="430"/>
      <point x="57" y="369"/>
      <point x="57" y="280" type="curve" smooth="yes"/>
      <point x="57" y="180"/>
      <point x="143" y="131"/>
      <point x="227" y="131" type="curve" smooth="yes"/>
      <point x="331" y="131"/>
      <point x="398" y="192"/>
      <point x="398" y="280" type="curve" smooth="yes"/>
      <point x="398" y="388"/>
      <point x="317" y="430"/>
      <point x="227" y="430" type="curve" smooth="yes"/>
    </contour>
    <contour>
      <point x="393" y="505"/>
      <point x="333" y="460"/>
      <point x="299" y="413" type="curve"/>
      <point x="320" y="404" type="line"/>
      <point x="337" y="431"/>
      <point x="379" y="447"/>
      <point x="390" y="447" type="curve" smooth="yes"/>
      <point x="409" y="447"/>
      <point x="403" y="424"/>
      <point x="435" y="424" type="curve" smooth="yes"/>
      <point x="455" y="424"/>
      <point x="467" y="445"/>
      <point x="467" y="461" type="curve" smooth="yes"/>
      <point x="467" y="479"/>
      <point x="458" y="505"/>
      <point x="421" y="505" type="curve" smooth="yes"/>
    </contour>
    <contour>
      <point x="230" y="420" type="move" name="top"/>
    </contour>
  </outline>
</glyph>
<glyph name="j" format="1">
  <advance width="251"/>
  <unicode hex="006A"/>
  <outline>
    <contour>
      <point x="31" y="420" type="line"/>
      <point x="31" y="394" type="line"/>
      <point x="72" y="396" type="line" smooth="yes"/>
      <point x="81" y="396"/>
      <point x="85" y="387"/>
      <point x="85" y="376" type="curve" smooth="yes"/>
      <point x="85" y="-59" type="line" smooth="yes"/>
      <point x="85" y="-85"/>
      <point x="87" y="-128"/>
      <point x="87" y="-133" type="curve" smooth="yes"/>
      <point x="87" y="-188"/>
      <point x="69" y="-216"/>
      <point x="34" y="-216" type="curve" smooth="yes"/>
      <point x="15" y="-216"/>
      <point x="3" y="-207"/>
      <point x="3" y="-191" type="curve" smooth="yes"/>
      <point x="3" y="-182"/>
      <point x="9" y="-170"/>
      <point x="9" y="-160" type="curve" smooth="yes"/>
      <point x="9" y="-136"/>
      <point x="-16" y="-132"/>
      <point x="-26" y="-132" type="curve" smooth="yes"/>
      <point x="-54" y="-132"/>
      <point x="-73" y="-149"/>
      <point x="-73" y="-176" type="curve" smooth="yes"/>
      <point x="-73" y="-211"/>
      <point x="-36" y="-243"/>
      <point x="28" y="-243" type="curve" smooth="yes"/>
      <point x="121" y="-243"/>
      <point x="171" y="-169"/>
      <point x="171" y="-4" type="curve" smooth="yes"/>
      <point x="171" y="420" type="line"/>
    </contour>
    <contour>
      <point x="91" y="643"/>
      <point x="69" y="625"/>
      <point x="69" y="596" type="curve" smooth="yes"/>
      <point x="69" y="565"/>
      <point x="91" y="548"/>
      <point x="123" y="548" type="curve" smooth="yes"/>
      <point x="154" y="548"/>
      <point x="178" y="565"/>
      <point x="178" y="596" type="curve" smooth="yes"/>
      <point x="178" y="625"/>
      <point x="154" y="643"/>
      <point x="123" y="643" type="curve" smooth="yes"/>
    </contour>
  </outline>
</glyph>
<glyph name="m" format="1">
  <advance width="801"/>
  <unicode hex="006D"/>
  <outline>
    <contour>
      <point x="35" y="420" type="line"/>
      <point x="35" y="394" type="line"/>
      <point x="72" y="396" type="line" smooth="yes"/>
      <point x="80" y="396"/>
      <point x="85" y="387"/>
      <point x="85" y="376" type="curve" smooth="yes"/>
      <point x="85" y="43" type="line" smooth="yes"/>
      <point x="85" y="32"/>
      <point x="81" y="26"/>
      <point x="72" y="24" type="curve"/>
      <point x="35" y="26" type="line"/>
      <point x="35" y="0" type="line"/>
      <point x="230" y="0" type="line"/>
      <point x="230" y="26" type="line"/>
      <point x="184" y="24" type="line" smooth="yes"/>
      <point x="175" y="24"/>
      <point x="171" y="30"/>
      <point x="171" y="43" type="curve" smooth="yes"/>
      <point x="172" y="386" type="line" smooth="yes"/>
      <point x="172" y="400"/>
      <point x="174" y="411"/>
      <point x="177" y="420" type="curve"/>
    </contour>
    <contour>
      <point x="236" y="430"/>
      <point x="184" y="379"/>
      <point x="168" y="318" type="curve"/>
      <point x="171" y="195" type="line"/>
      <point x="167" y="311"/>
      <point x="217" y="397"/>
      <point x="294" y="397" type="curve" smooth="yes"/>
      <point x="354" y="397"/>
      <point x="365" y="371"/>
      <point x="365" y="272" type="curve" smooth="yes"/>
      <point x="365" y="43" type="line" smooth="yes"/>
      <point x="365" y="32"/>
      <point x="361" y="26"/>
      <point x="352" y="24" type="curve"/>
      <point x="306" y="26" type="line"/>
      <point x="306" y="0" type="line"/>
      <point x="511" y="0" type="line"/>
      <point x="511" y="26" type="line"/>
      <point x="464" y="24" type="line" smooth="yes"/>
      <point x="455" y="24"/>
      <point x="451" y="30"/>
      <point x="451" y="43" type="curve" smooth="yes"/>
      <point x="451" y="267" type="line"/>
      <point x="451" y="401"/>
      <point x="397" y="430"/>
      <point x="317" y="430" type="curve" smooth="yes"/>
    </contour>
    <contour>
      <point x="524" y="430"/>
      <point x="464" y="387"/>
      <point x="444" y="303" type="curve"/>
      <point x="451" y="193" type="line"/>
      <point x="446" y="316"/>
      <point x="501" y="398"/>
      <point x="578" y="398" type="curve" smooth="yes"/>
      <point x="639" y="398"/>
      <point x="645" y="355"/>
      <point x="645" y="270" type="curve" smooth="yes"/>
      <point x="645" y="43" type="line" smooth="yes"/>
      <point x="645" y="32"/>
      <point x="641" y="26"/>
      <point x="632" y="24" type="curve"/>
      <point x="586" y="26" type="line"/>
      <point x="586" y="0" type="line"/>
      <point x="781" y="0" type="line"/>
      <point x="781" y="26" type="line"/>
      <point x="744" y="24" type="line" smooth="yes"/>
      <point x="735" y="24"/>
      <point x="731" y="30"/>
      <point x="731" y="43" type="curve" smooth="yes"/>
      <point x="731" y="288" type="line" smooth="yes"/>
      <point x="731" y="388"/>
      <point x="692" y="430"/>
      <point x="597" y="430" type="curve" smooth="yes"/>
    </contour>
  </outline>
</glyph>
<glyph name="n" format="1">
  <advance width="525"/>
  <unicode hex="006E"/>
  <outline>
    <contour>
      <point x="248" y="430"/>
      <point x="192" y="387"/>
      <point x="167" y="320" type="curve"/>
      <point x="171" y="193" type="line"/>
      <point x="167" y="316"/>
      <point x="219" y="398"/>
      <point x="302" y="398" type="curve" smooth="yes"/>
      <point x="363" y="398"/>
      <point x="369" y="355"/>
      <point x="369" y="270" type="curve" smooth="yes"/>
      <point x="369" y="43" type="line" smooth="yes"/>
      <point x="369" y="32"/>
      <point x="365" y="26"/>
      <point x="356" y="24" type="curve"/>
      <point x="310" y="26" type="line"/>
      <point x="310" y="0" type="line"/>
      <point x="505" y="0" type="line"/>
      <point x="505" y="26" type="line"/>
      <point x="468" y="24" type="line" smooth="yes"/>
      <point x="459" y="24"/>
      <point x="455" y="30"/>
      <point x="455" y="43" type="curve" smooth="yes"/>
      <point x="455" y="288" type="line" smooth="yes"/>
      <point x="455" y="388"/>
      <point x="416" y="430"/>
      <point x="321" y="430" type="curve" smooth="yes"/>
    </contour>
    <contour>
      <point x="35" y="420" type="line"/>
      <point x="35" y="394" type="line"/>
      <point x="72" y="396" type="line"/>
      <point x="81" y="394"/>
      <point x="85" y="387"/>
      <point x="85" y="376" type="curve" smooth="yes"/>
      <point x="85" y="43" type="line" smooth="yes"/>
      <point x="85" y="32"/>
      <point x="81" y="26"/>
      <point x="72" y="24" type="curve"/>
      <point x="35" y="26" type="line"/>
      <point x="35" y="0" type="line"/>
      <point x="230" y="0" type="line"/>
      <point x="230" y="26" type="line"/>
      <point x="184" y="24" type="line" smooth="yes"/>
      <point x="175" y="24"/>
      <point x="171" y="30"/>
      <point x="171" y="43" type="curve"/>
      <point x="171" y="385" type="line"/>
      <point x="171" y="400"/>
      <point x="173" y="411"/>
      <point x="176" y="420" type="curve"/>
    </contour>
    <contour>
      <point x="263" y="420" type="move" name="top"/>
    </contour>
    <contour>
      <point x="263" y="0" type="move" name="bottom"/>
    </contour>
  </outline>
</glyph>
<glyph name="o" format="1">
  <advance width="472"/>
  <unicode hex="006F"/>
  <outline>
    <contour>
      <point x="35" y="76"/>
      <point x="101" y="-10"/>
      <point x="236" y="-10" type="curve" smooth="yes"/>
      <point x="371" y="-10"/>
      <point x="437" y="76"/>
      <point x="437" y="211" type="curve" smooth="yes"/>
      <point x="437" y="343"/>
      <point x="371" y="430"/>
      <point x="236" y="430" type="curve" smooth="yes"/>
      <point x="101" y="430"/>
      <point x="35" y="343"/>
      <point x="35" y="211" type="curve" smooth="yes"/>
    </contour>
    <contour>
      <point x="126" y="344"/>
      <point x="156" y="403"/>
      <point x="236" y="403" type="curve" smooth="yes"/>
      <point x="316" y="403"/>
      <point x="346" y="344"/>
      <point x="346" y="209" type="curve" smooth="yes"/>
      <point x="346" y="76"/>
      <point x="316" y="17"/>
      <point x="236" y="17" type="curve" smooth="yes"/>
      <point x="156" y="17"/>
      <point x="126" y="76"/>
      <point x="126" y="209" type="curve" smooth="yes"/>
    </contour>
    <contour>
      <point x="236" y="420" type="move" name="top"/>
    </contour>
  </outline>
</glyph>
<glyph name="p" format="1">
  <advance width="494"/>
  <unicode hex="0070"/>
  <outline>
    <contour>
      <point x="220" y="430"/>
      <point x="174" y="396"/>
      <point x="155" y="340" type="curve"/>
      <point x="155" y="369" type="line" smooth="yes"/>
      <point x="155" y="382"/>
      <point x="156" y="401"/>
      <point x="159" y="420" type="curve"/>
      <point x="20" y="420" type="line"/>
      <point x="20" y="394" type="line"/>
      <point x="56" y="396" type="line" smooth="yes"/>
      <point x="65" y="396"/>
      <point x="69" y="389"/>
      <point x="69" y="376" type="curve" smooth="yes"/>
      <point x="69" y="-195" type="line" smooth="yes"/>
      <point x="69" y="-208"/>
      <point x="65" y="-214"/>
      <point x="56" y="-215" type="curve"/>
      <point x="24" y="-213" type="line"/>
      <point x="24" y="-239" type="line"/>
      <point x="230" y="-239" type="line"/>
      <point x="230" y="-213" type="line"/>
      <point x="168" y="-215" type="line" smooth="yes"/>
      <point x="159" y="-215"/>
      <point x="155" y="-208"/>
      <point x="155" y="-195" type="curve" smooth="yes"/>
      <point x="155" y="43" type="line"/>
      <point x="174" y="8"/>
      <point x="214" y="-10"/>
      <point x="269" y="-10" type="curve" smooth="yes"/>
      <point x="400" y="-10"/>
      <point x="459" y="64"/>
      <point x="459" y="209" type="curve" smooth="yes"/>
      <point x="459" y="350"/>
      <point x="404" y="430"/>
      <point x="287" y="430" type="curve" smooth="yes"/>
    </contour>
    <contour>
      <point x="350" y="403"/>
      <point x="368" y="353"/>
      <point x="368" y="209" type="curve" smooth="yes"/>
      <point x="368" y="62"/>
      <point x="345" y="17"/>
      <point x="269" y="17" type="curve" smooth="yes"/>
      <point x="198" y="17"/>
      <point x="157" y="64"/>
      <point x="157" y="184" type="curve" smooth="yes"/>
      <point x="157" y="226" type="line" smooth="yes"/>
      <point x="157" y="330"/>
      <point x="199" y="403"/>
      <point x="276" y="403" type="curve" smooth="yes"/>
    </contour>
  </outline>
</glyph>
<glyph name="x" format="1">
  <advance width="486"/>
  <unicode hex="0078"/>
  <outline>
    <contour>
      <point x="199" y="213" type="line"/>
      <point x="69" y="37" type="line" smooth="yes"/>
      <point x="62" y="28"/>
      <point x="55" y="24"/>
      <point x="48" y="24" type="curve" smooth="yes"/>
      <point x="5" y="26" type="line"/>
      <point x="5" y="0" type="line"/>
      <point x="157" y="0" type="line"/>
      <point x="157" y="26" type="line"/>
      <point x="114" y="24" type="line" smooth="yes"/>
      <point x="105" y="24"/>
      <point x="101" y="27"/>
      <point x="101" y="34" type="curve" smooth="yes"/>
      <point x="101" y="35"/>
      <point x="102" y="37"/>
      <point x="103" y="38" type="curve" smooth="yes"/>
      <point x="216" y="189" type="line"/>
    </contour>
    <contour>
      <point x="270" y="232" type="line"/>
      <point x="379" y="381" type="line" smooth="yes"/>
      <point x="386" y="390"/>
      <point x="397" y="396"/>
      <point x="404" y="396" type="curve" smooth="yes"/>
      <point x="446" y="394" type="line"/>
      <point x="446" y="420" type="line"/>
      <point x="297" y="420" type="line"/>
      <point x="297" y="394" type="line"/>
      <point x="340" y="396" type="line" smooth="yes"/>
      <point x="351" y="396"/>
      <point x="351" y="386"/>
      <point x="346" y="379" type="curve" smooth="yes"/>
      <point x="253" y="255" type="line"/>
    </contour>
    <contour>
      <point x="313" y="37" type="line"/>
      <point x="317" y="32"/>
      <point x="315" y="22"/>
      <point x="306" y="23" type="curve" smooth="yes"/>
      <point x="257" y="26" type="line"/>
      <point x="257" y="0" type="line"/>
      <point x="478" y="0" type="line"/>
      <point x="478" y="26" type="line"/>
      <point x="434" y="24" type="line" smooth="yes"/>
      <point x="427" y="24"/>
      <point x="421" y="28"/>
      <point x="415" y="37" type="curve"/>
      <point x="171" y="383" type="line"/>
      <point x="164" y="391"/>
      <point x="172" y="396"/>
      <point x="180" y="396" type="curve" smooth="yes"/>
      <point x="226" y="394" type="line"/>
      <point x="226" y="420" type="line"/>
      <point x="11" y="420" type="line"/>
      <point x="11" y="394" type="line"/>
      <point x="50" y="396" type="line" smooth="yes"/>
      <point x="57" y="396"/>
      <point x="64" y="392"/>
      <point x="69" y="383" type="curve"/>
    </contour>
  </outline>
</glyph>
<glyph name="z" format="1">
  <advance width="441"/>
  <unicode hex="007A"/>
  <outline>
    <contour>
      <point x="296" y="415" type="line"/>
      <point x="34" y="18" type="line"/>
      <point x="34" y="-2" type="line"/>
      <point x="46" y="-2"/>
      <point x="87" y="0"/>
      <point x="138" y="0" type="curve" smooth="yes"/>
      <point x="190" y="0" type="line"/>
      <point x="398" y="0" type="line"/>
      <point x="398" y="139" type="line"/>
      <point x="377" y="139" type="line"/>
      <point x="377" y="63"/>
      <point x="332" y="25"/>
      <point x="248" y="25" type="curve" smooth="yes"/>
      <point x="123" y="25" type="line"/>
      <point x="131" y="8" type="line"/>
      <point x="388" y="401" type="line"/>
      <point x="388" y="420" type="line"/>
      <point x="201" y="420" type="line"/>
      <point x="150" y="420" type="line" smooth="yes"/>
      <point x="99" y="420"/>
      <point x="58" y="422"/>
      <point x="54" y="422" type="curve"/>
      <point x="45" y="280" type="line"/>
      <point x="66" y="280" type="line"/>
      <point x="77" y="352"/>
      <point x="117" y="395"/>
      <point x="185" y="395" type="curve" smooth="yes"/>
      <point x="306" y="395" type="line"/>
    </contour>
    <contour>
      <point x="221" y="420" type="move" name="top"/>
    </contour>
  </outline>
</glyph>
<glyph name="exclamdown" format="1">
  <advance width="269"/>
  <unicode hex="00A1"/>
  <outline>
    <contour>
      <point x="107" y="234"/>
      <point x="103" y="229"/>
      <point x="103" y="218" type="curve" smooth="yes"/>
      <point x="103" y="58"/>
      <point x="65" y="-137"/>
      <point x="65" y="-193" type="curve" smooth="yes"/>
      <point x="65" y="-224"/>
      <point x="83" y="-242"/>
      <point x="114" y="-242" type="curve" smooth="yes"/>
      <point x="146" y="-242"/>
      <point x="164" y="-224"/>
      <point x="164" y="-193" type="curve" smooth="yes"/>
      <point x="164" y="-135"/>
      <point x="126" y="58"/>
      <point x="126" y="218" type="curve" smooth="yes"/>
      <point x="126" y="229"/>
      <point x="122" y="234"/>
      <point x="115" y="234" type="curve" smooth="yes"/>
    </contour>
    <contour>
      <point x="81" y="445"/>
      <point x="50" y="419"/>
      <point x="50" y="387" type="curve" smooth="yes"/>
      <point x="50" y="355"/>
      <point x="79" y="330"/>
      <point x="115" y="330" type="curve" smooth="yes"/>
      <point x="151" y="330"/>
      <point x="179" y="356"/>
      <point x="179" y="388" type="curve" smooth="yes"/>
      <point x="179" y="419"/>
      <point x="149" y="445"/>
      <point x="114" y="445" type="curve" smooth="yes"/>
    </contour>
  </outline>
</glyph>
<glyph name="cent" format="1">
  <advance width="394"/>
  <unicode hex="00A2"/>
  <outline>
    <contour>
      <point x="206" y="124" type="line"/>
      <point x="206" y="-95" type="line"/>
      <point x="243" y="-95" type="line"/>
      <point x="243" y="126" type="line"/>
    </contour>
    <contour>
      <point x="243" y="455" type="line"/>
      <point x="243" y="647" type="line"/>
      <point x="206" y="647" type="line"/>
      <point x="206" y="458" type="line"/>
    </contour>
    <contour>
      <point x="113" y="467"/>
      <point x="42" y="403"/>
      <point x="42" y="288" type="curve" smooth="yes"/>
      <point x="42" y="172"/>
      <point x="114" y="115"/>
      <point x="215" y="115" type="curve" smooth="yes"/>
      <point x="287" y="115"/>
      <point x="337" y="146"/>
      <point x="358" y="209" type="curve"/>
      <point x="336" y="222" type="line"/>
      <point x="319" y="164"/>
      <point x="273" y="140"/>
      <point x="226" y="140" type="curve" smooth="yes"/>
      <point x="168" y="140"/>
      <point x="134" y="183"/>
      <point x="134" y="298" type="curve" smooth="yes"/>
      <point x="134" y="410"/>
      <point x="167" y="443"/>
      <point x="216" y="443" type="curve" smooth="yes"/>
      <point x="245" y="443"/>
      <point x="274" y="431"/>
      <point x="274" y="404" type="curve" smooth="yes"/>
      <point x="274" y="389"/>
      <point x="266" y="382"/>
      <point x="266" y="369" type="curve" smooth="yes"/>
      <point x="266" y="349"/>
      <point x="281" y="340"/>
      <point x="302" y="340" type="curve" smooth="yes"/>
      <point x="334" y="340"/>
      <point x="346" y="362"/>
      <point x="346" y="384" type="curve" smooth="yes"/>
      <point x="346" y="431"/>
      <point x="287" y="467"/>
      <point x="212" y="467" type="curve" smooth="yes"/>
    </contour>
  </outline>
</glyph>
<glyph name="currency" format="1">
  <advance width="443"/>
  <unicode hex="00A4"/>
  <outline>
    <contour>
      <point x="119" y="390" type="line"/>
      <point x="66" y="443" type="line"/>
      <point x="43" y="420" type="line"/>
      <point x="96" y="367" type="line"/>
    </contour>
    <contour>
      <point x="83" y="340"/>
      <point x="145" y="403"/>
      <point x="222" y="403" type="curve" smooth="yes"/>
      <point x="299" y="403"/>
      <point x="361" y="340"/>
      <point x="361" y="265" type="curve" smooth="yes"/>
      <point x="361" y="188"/>
      <point x="299" y="126"/>
      <point x="222" y="126" type="curve" smooth="yes"/>
      <point x="145" y="126"/>
      <point x="83" y="188"/>
      <point x="83" y="265" type="curve" smooth="yes"/>
    </contour>
    <contour>
      <point x="97" y="162" type="line"/>
      <point x="42" y="107" type="line"/>
      <point x="65" y="84" type="line"/>
      <point x="120" y="139" type="line"/>
    </contour>
    <contour>
      <point x="348" y="366" type="line"/>
      <point x="402" y="419" type="line"/>
      <point x="379" y="442" type="line"/>
      <point x="326" y="389" type="line"/>
    </contour>
    <contour>
      <point x="324" y="138" type="line"/>
      <point x="378" y="83" type="line"/>
      <point x="401" y="106" type="line"/>
      <point x="347" y="161" type="line"/>
    </contour>
    <contour>
      <point x="127" y="94"/>
      <point x="222" y="94" type="curve" smooth="yes"/>
      <point x="312" y="94"/>
      <point x="393" y="164"/>
      <point x="393" y="265" type="curve" smooth="yes"/>
      <point x="393" y="356"/>
      <point x="319" y="435"/>
      <point x="222" y="435" type="curve" smooth="yes"/>
      <point x="132" y="435"/>
      <point x="52" y="364"/>
      <point x="52" y="265" type="curve" smooth="yes"/>
      <point x="52" y="173"/>
    </contour>
  </outline>
</glyph>
<glyph name="yen" format="1">
  <advance width="507"/>
  <unicode hex="00A5"/>
  <outline>
    <contour>
      <point x="318" y="312" type="line"/>
      <point x="445" y="312" type="line"/>
      <point x="445" y="341" type="line"/>
      <point x="318" y="341" type="line"/>
    </contour>
    <contour>
      <point x="198" y="341" type="line"/>
      <point x="88" y="341" type="line"/>
      <point x="88" y="312" type="line"/>
      <point x="198" y="312" type="line"/>
    </contour>
    <contour>
      <point x="445" y="202" type="line"/>
      <point x="445" y="231" type="line"/>
      <point x="88" y="231" type="line"/>
      <point x="88" y="202" type="line"/>
    </contour>
    <component base="Y"/>
  </outline>
</glyph>
<glyph name="copyright" format="1">
  <advance width="723"/>
  <unicode hex="00A9"/>
  <outline>
    <contour>
      <point x="53" y="126"/>
      <point x="189" y="-10"/>
      <point x="361" y="-10" type="curve" smooth="yes"/>
      <point x="531" y="-10"/>
      <point x="670" y="126"/>
      <point x="670" y="298" type="curve" smooth="yes"/>
      <point x="670" y="468"/>
      <point x="531" y="607"/>
      <point x="361" y="607" type="curve" smooth="yes"/>
      <point x="189" y="607"/>
      <point x="53" y="468"/>
      <point x="53" y="298" type="curve" smooth="yes"/>
    </contour>
    <contour>
      <point x="85" y="454"/>
      <point x="204" y="577"/>
      <point x="360" y="577" type="curve" smooth="yes"/>
      <point x="516" y="577"/>
      <point x="636" y="454"/>
      <point x="636" y="298" type="curve" smooth="yes"/>
      <point x="636" y="142"/>
      <point x="516" y="20"/>
      <point x="360" y="20" type="curve" smooth="yes"/>
      <point x="204" y="20"/>
      <point x="85" y="142"/>
      <point x="85" y="298" type="curve" smooth="yes"/>
    </contour>
    <contour>
      <point x="193" y="195"/>
      <point x="258" y="131"/>
      <point x="365" y="131" type="curve" smooth="yes"/>
      <point x="415" y="131"/>
      <point x="453" y="156"/>
      <point x="488" y="156" type="curve" smooth="yes"/>
      <point x="492" y="156" type="line"/>
      <point x="491" y="163"/>
      <point x="490" y="172"/>
      <point x="490" y="182" type="curve" smooth="yes"/>
      <point x="490" y="189"/>
      <point x="491" y="205"/>
      <point x="493" y="229" type="curve"/>
      <point x="471" y="229" type="line"/>
      <point x="462" y="186"/>
      <point x="427" y="153"/>
      <point x="378" y="153" type="curve" smooth="yes"/>
      <point x="317" y="153"/>
      <point x="281" y="201"/>
      <point x="281" y="299" type="curve" smooth="yes"/>
      <point x="281" y="402"/>
      <point x="315" y="451"/>
      <point x="376" y="451" type="curve" smooth="yes"/>
      <point x="418" y="451"/>
      <point x="460" y="416"/>
      <point x="469" y="375" type="curve"/>
      <point x="488" y="375" type="line"/>
      <point x="487" y="376"/>
      <point x="486" y="389"/>
      <point x="486" y="406" type="curve" smooth="yes"/>
      <point x="486" y="419"/>
      <point x="487" y="435"/>
      <point x="488" y="447" type="curve"/>
      <point x="446" y="447"/>
      <point x="431" y="471"/>
      <point x="368" y="471" type="curve" smooth="yes"/>
      <point x="258" y="471"/>
      <point x="193" y="408"/>
      <point x="193" y="299" type="curve" smooth="yes"/>
    </contour>
  </outline>
</glyph>
<glyph name="plusminus" format="1">
  <advance width="460"/>
  <unicode hex="00B1"/>
  <outline>
    <contour>
      <point x="440" y="0" type="line"/>
      <point x="440" y="41" type="line"/>
      <point x="20" y="41" type="line"/>
      <point x="20" y="0" type="line"/>
    </contour>
    <contour>
      <point x="207" y="274" type="line"/>
      <point x="207" y="80" type="line"/>
      <point x="252" y="80" type="line"/>
      <point x="252" y="274" type="line"/>
      <point x="440" y="274" type="line"/>
      <point x="440" y="315" type="line"/>
      <point x="252" y="315" type="line"/>
      <point x="252" y="506" type="line"/>
      <point x="207" y="506" type="line"/>
      <point x="207" y="315" type="line"/>
      <point x="20" y="315" type="line"/>
      <point x="20" y="274" type="line"/>
    </contour>
  </outline>
</glyph>
<glyph name="acute" format="1">
  <advance width="276"/>
  <unicode hex="00B4"/>
  <outline>
    <contour>
      <point x="241" y="635"/>
      <point x="208" y="653"/>
      <point x="184" y="653" type="curve" smooth="yes"/>
      <point x="169" y="653"/>
      <point x="165" y="647"/>
      <point x="148" y="628" type="curve" smooth="yes"/>
      <point x="53" y="524" type="line" smooth="yes"/>
      <point x="45" y="515"/>
      <point x="35" y="506"/>
      <point x="35" y="501" type="curve" smooth="yes"/>
      <point x="35" y="496"/>
      <point x="39" y="493"/>
      <point x="48" y="493" type="curve" smooth="yes"/>
      <point x="55" y="493"/>
      <point x="64" y="499"/>
      <point x="68" y="502" type="curve" smooth="yes"/>
      <point x="231" y="614" type="line" smooth="yes"/>
      <point x="235" y="617"/>
      <point x="241" y="620"/>
      <point x="241" y="627" type="curve" smooth="yes"/>
    </contour>
    <contour>
      <point x="104" y="420" type="move" name="_top"/>
    </contour>
  </outline>
</glyph>
<glyph name="ordmasculine" format="1">
  <advance width="351"/>
  <unicode hex="00BA"/>
  <outline>
    <contour>
      <point x="44" y="404"/>
      <point x="86" y="344"/>
      <point x="175" y="344" type="curve" smooth="yes"/>
      <point x="259" y="344"/>
      <point x="307" y="395"/>
      <point x="307" y="480" type="curve" smooth="yes"/>
      <point x="307" y="569"/>
      <point x="255" y="618"/>
      <point x="175" y="618" type="curve" smooth="yes"/>
      <point x="94" y="618"/>
      <point x="44" y="567"/>
      <point x="44" y="480" type="curve" smooth="yes"/>
    </contour>
    <contour>
      <point x="115" y="561"/>
      <point x="127" y="594"/>
      <point x="175" y="594" type="curve" smooth="yes"/>
      <point x="223" y="594"/>
      <point x="236" y="565"/>
      <point x="236" y="480" type="curve" smooth="yes"/>
      <point x="236" y="388"/>
      <point x="219" y="368"/>
      <point x="175" y="368" type="curve" smooth="yes"/>
      <point x="124" y="368"/>
      <point x="115" y="401"/>
      <point x="115" y="480" type="curve" smooth="yes"/>
    </contour>
  </outline>
</glyph>
<glyph name="threequarters" format="1">
  <advance width="559"/>
  <unicode hex="00BE"/>
  <outline>
    <contour>
      <point x="424" y="65" type="line"/>
      <point x="424" y="30" type="line" smooth="yes"/>
      <point x="424" y="24"/>
      <point x="421" y="21"/>
      <point x="415" y="21" type="curve" smooth="yes"/>
      <point x="382" y="21" type="line"/>
      <point x="382" y="0" type="line"/>
      <point x="522" y="0" type="line"/>
      <point x="522" y="21" type="line"/>
      <point x="502" y="21" type="line" smooth="yes"/>
      <point x="496" y="21"/>
      <point x="493" y="24"/>
      <point x="493" y="30" type="curve" smooth="yes"/>
      <point x="493" y="65" type="line"/>
      <point x="529" y="65" type="line"/>
      <point x="529" y="102" type="line"/>
      <point x="493" y="102" type="line"/>
      <point x="493" y="274" type="line"/>
      <point x="460" y="274" type="line"/>
      <point x="297" y="98" type="line"/>
      <point x="297" y="65" type="line"/>
    </contour>
    <contour>
      <point x="436" y="211" type="line"/>
      <point x="424" y="216" type="line"/>
      <point x="424" y="102" type="line"/>
      <point x="314" y="102" type="line"/>
      <point x="321" y="88" type="line"/>
    </contour>
    <component base="fraction" xOffset="204"/>
    <component base="uni00B3" xOffset="24" yOffset="-71"/>
  </outline>
</glyph>
<glyph name="AE" format="1">
  <advance width="847"/>
  <unicode hex="00C6"/>
  <outline>
    <contour>
      <point x="776" y="598"/>
      <point x="764" y="597"/>
      <point x="749" y="597" type="curve" smooth="yes"/>
      <point x="284" y="597" type="line"/>
      <point x="284" y="565" type="line"/>
      <point x="335" y="567" type="line" smooth="yes"/>
      <point x="346" y="567"/>
      <point x="357" y="555"/>
      <point x="350" y="543" type="curve" smooth="yes"/>
      <point x="71" y="86" type="line" smooth="yes"/>
      <point x="44" y="43"/>
      <point x="30" y="24"/>
      <point x="11" y="27" type="curve"/>
      <point x="-20" y="30" type="line"/>
      <point x="-20" y="0" type="line"/>
      <point x="155" y="0" type="line"/>
      <point x="155" y="30" type="line"/>
      <point x="104" y="27" type="line"/>
      <point x="71" y="24"/>
      <point x="87" y="61"/>
      <point x="98" y="80" type="curve" smooth="yes"/>
      <point x="174" y="208" type="line"/>
      <point x="420" y="208" type="line"/>
      <point x="449" y="52" type="line"/>
      <point x="452" y="40"/>
      <point x="444" y="26"/>
      <point x="427" y="27" type="curve" smooth="yes"/>
      <point x="370" y="30" type="line"/>
      <point x="370" y="0" type="line"/>
      <point x="715" y="0" type="line" smooth="yes"/>
      <point x="730" y="0"/>
      <point x="767" y="0"/>
      <point x="803" y="-3" type="curve"/>
      <point x="803" y="171" type="line"/>
      <point x="776" y="171" type="line"/>
      <point x="776" y="75"/>
      <point x="729" y="27"/>
      <point x="635" y="27" type="curve" smooth="yes"/>
      <point x="569" y="27" type="line" smooth="yes"/>
      <point x="558" y="27"/>
      <point x="551" y="35"/>
      <point x="548" y="46" type="curve"/>
      <point x="500" y="297" type="line"/>
      <point x="579" y="297" type="line" smooth="yes"/>
      <point x="622" y="297"/>
      <point x="655" y="255"/>
      <point x="655" y="195" type="curve"/>
      <point x="681" y="195" type="line"/>
      <point x="681" y="426" type="line"/>
      <point x="655" y="426" type="line"/>
      <point x="655" y="365"/>
      <point x="622" y="324"/>
      <point x="579" y="324" type="curve" smooth="yes"/>
      <point x="496" y="324" type="line"/>
      <point x="451" y="569" type="line"/>
      <point x="615" y="569" type="line" smooth="yes"/>
      <point x="711" y="569"/>
      <point x="757" y="531"/>
      <point x="757" y="443" type="curve"/>
      <point x="783" y="443" type="line"/>
      <point x="783" y="599" type="line"/>
    </contour>
    <contour>
      <point x="414" y="236" type="line"/>
      <point x="190" y="236" type="line"/>
      <point x="362" y="515" type="line"/>
    </contour>
    <contour>
      <point x="456" y="598" type="move" name="top"/>
    </contour>
  </outline>
</glyph>
<glyph name="Thorn" format="1">
  <advance width="524"/>
  <unicode hex="00DE"/>
  <outline>
    <contour>
      <point x="270" y="0" type="line"/>
      <point x="270" y="29" type="line"/>
      <point x="221" y="27" type="line" smooth="yes"/>
      <point x="206" y="26"/>
      <point x="201" y="36"/>
      <point x="201" y="49" type="curve" smooth="yes"/>
      <point x="201" y="162" type="line"/>
      <point x="304" y="162" type="line" smooth="yes"/>
      <point x="421" y="162"/>
      <point x="489" y="230"/>
      <point x="489" y="334" type="curve" smooth="yes"/>
      <point x="489" y="446"/>
      <point x="424" y="496"/>
      <point x="283" y="496" type="curve" smooth="yes"/>
      <point x="201" y="496" type="line"/>
      <point x="201" y="548" type="line" smooth="yes"/>
      <point x="201" y="559"/>
      <point x="209" y="569"/>
      <point x="221" y="569" type="curve" smooth="yes"/>
      <point x="270" y="567" type="line"/>
      <point x="270" y="597" type="line"/>
      <point x="50" y="597" type="line"/>
      <point x="50" y="567" type="line"/>
      <point x="89" y="569" type="line" smooth="yes"/>
      <point x="102" y="569"/>
      <point x="108" y="559"/>
      <point x="108" y="548" type="curve" smooth="yes"/>
      <point x="108" y="49" type="line" smooth="yes"/>
      <point x="108" y="36"/>
      <point x="102" y="26"/>
      <point x="89" y="27" type="curve" smooth="yes"/>
      <point x="50" y="29" type="line"/>
      <point x="50" y="0" type="line"/>
    </contour>
    <contour>
      <point x="201" y="471" type="line"/>
      <point x="267" y="471" type="line" smooth="yes"/>
      <point x="346" y="471"/>
      <point x="393" y="415"/>
      <point x="393" y="334" type="curve" smooth="yes"/>
      <point x="393" y="252"/>
      <point x="342" y="188"/>
      <point x="283" y="188" type="curve" smooth="yes"/>
      <point x="214" y="188" type="line" smooth="yes"/>
      <point x="207" y="188"/>
      <point x="201" y="194"/>
      <point x="201" y="201" type="curve" smooth="yes"/>
    </contour>
  </outline>
</glyph>
<glyph name="eth" format="1">
  <advance width="492"/>
  <unicode hex="00F0"/>
  <outline>
    <contour>
      <point x="126" y="357"/>
      <point x="155" y="404"/>
      <point x="246" y="404" type="curve" smooth="yes"/>
      <point x="331" y="404"/>
      <point x="366" y="349"/>
      <point x="366" y="209" type="curve" smooth="yes"/>
      <point x="366" y="72"/>
      <point x="334" y="14"/>
      <point x="246" y="14" type="curve" smooth="yes"/>
      <point x="159" y="14"/>
      <point x="126" y="62"/>
      <point x="126" y="209" type="curve" smooth="yes"/>
    </contour>
    <contour>
      <point x="457" y="455"/>
      <point x="286" y="600"/>
      <point x="132" y="607" type="curve"/>
      <point x="112" y="585" type="line"/>
      <point x="181" y="585"/>
      <point x="303" y="490"/>
      <point x="330" y="397" type="curve"/>
      <point x="334" y="397" type="line"/>
      <point x="322" y="416"/>
      <point x="280" y="429"/>
      <point x="246" y="429" type="curve" smooth="yes"/>
      <point x="109" y="429"/>
      <point x="35" y="353"/>
      <point x="35" y="209" type="curve" smooth="yes"/>
      <point x="35" y="64"/>
      <point x="109" y="-11"/>
      <point x="246" y="-11" type="curve" smooth="yes"/>
      <point x="382" y="-11"/>
      <point x="457" y="77"/>
      <point x="457" y="213" type="curve" smooth="yes"/>
    </contour>
    <contour>
      <point x="378" y="594" type="line"/>
      <point x="364" y="620" type="line"/>
      <point x="125" y="483" type="line"/>
      <point x="140" y="457" type="line"/>
    </contour>
  </outline>
</glyph>
<glyph name="oslash" format="1">
  <advance width="472"/>
  <unicode hex="00F8"/>
  <outline>
    <contour>
      <point x="422" y="483" type="line"/>
      <point x="388" y="504" type="line"/>
      <point x="68" y="-68" type="line"/>
      <point x="106" y="-85" type="line"/>
    </contour>
    <component base="o"/>
    <contour>
      <point x="236" y="420" type="move" name="top"/>
    </contour>
  </outline>
</glyph>
<glyph name="dotlessi" format="1">
  <advance width="255"/>
  <unicode hex="0131"/>
  <outline>
    <contour>
      <point x="36" y="420" type="line"/>
      <point x="36" y="394" type="line"/>
      <point x="73" y="396" type="line"/>
      <point x="81" y="394"/>
      <point x="85" y="387"/>
      <point x="85" y="376" type="curve" smooth="yes"/>
      <point x="85" y="43" type="line" smooth="yes"/>
      <point x="85" y="30"/>
      <point x="81" y="24"/>
      <point x="72" y="24" type="curve" smooth="yes"/>
      <point x="35" y="26" type="line"/>
      <point x="35" y="0" type="line"/>
      <point x="220" y="0" type="line"/>
      <point x="220" y="26" type="line"/>
      <point x="184" y="24" type="line" smooth="yes"/>
      <point x="175" y="24"/>
      <point x="171" y="30"/>
      <point x="171" y="43" type="curve" smooth="yes"/>
      <point x="171" y="420" type="line"/>
    </contour>
    <contour>
      <point x="192" y="13" type="move" name="ogonek"/>
    </contour>
    <contour>
      <point x="128" y="420" type="move" name="top"/>
    </contour>
  </outline>
</glyph>
<glyph name="lacute" format="1">
  <advance width="255"/>
  <unicode hex="013A"/>
  <outline>
    <contour>
      <point x="261" y="855"/>
      <point x="231" y="878"/>
      <point x="213" y="878" type="curve" smooth="yes"/>
      <point x="206" y="878"/>
      <point x="199" y="876"/>
      <point x="186" y="866" type="curve" smooth="yes"/>
      <point x="72" y="783" type="line" smooth="yes"/>
      <point x="63" y="777"/>
      <point x="59" y="771"/>
      <point x="59" y="767" type="curve" smooth="yes"/>
      <point x="59" y="761"/>
      <point x="66" y="758"/>
      <point x="73" y="758" type="curve" smooth="yes"/>
      <point x="80" y="758"/>
      <point x="85" y="760"/>
      <point x="90" y="762" type="curve" smooth="yes"/>
      <point x="251" y="834" type="line" smooth="yes"/>
      <point x="257" y="837"/>
      <point x="261" y="840"/>
      <point x="261" y="845" type="curve" smooth="yes"/>
    </contour>
    <component base="l"/>
  </outline>
</glyph>
<glyph name="Lslash" format="1">
  <advance width="514"/>
  <unicode hex="0141"/>
  <outline>
    <contour>
      <point x="50" y="175" type="line"/>
      <point x="158" y="265" type="line"/>
      <point x="158" y="310" type="line"/>
      <point x="50" y="220" type="line"/>
    </contour>
    <contour>
      <point x="299" y="423" type="line"/>
      <point x="158" y="305" type="line"/>
      <point x="158" y="260" type="line"/>
      <point x="299" y="376" type="line"/>
    </contour>
    <component base="L"/>
  </outline>
</glyph>
<glyph name="lslash" format="1">
  <advance width="255"/>
  <unicode hex="0142"/>
  <outline>
    <contour>
      <point x="25" y="301" type="line"/>
      <point x="138" y="395" type="line"/>
      <point x="138" y="440" type="line"/>
      <point x="25" y="346" type="line"/>
    </contour>
    <contour>
      <point x="231" y="511" type="line"/>
      <point x="138" y="433" type="line"/>
      <point x="138" y="388" type="line"/>
      <point x="231" y="465" type="line"/>
    </contour>
    <component base="l"/>
  </outline>
</glyph>
<glyph name="oe" format="1">
  <advance width="761"/>
  <unicode hex="0153"/>
  <outline>
    <contour>
      <point x="467" y="430"/>
      <point x="426" y="407"/>
      <point x="391" y="356" type="curve"/>
      <point x="361" y="405"/>
      <point x="306" y="430"/>
      <point x="227" y="430" type="curve" smooth="yes"/>
      <point x="88" y="430"/>
      <point x="35" y="326"/>
      <point x="35" y="202" type="curve" smooth="yes"/>
      <point x="35" y="79"/>
      <point x="105" y="-10"/>
      <point x="228" y="-10" type="curve" smooth="yes"/>
      <point x="314" y="-10"/>
      <point x="351" y="8"/>
      <point x="391" y="64" type="curve"/>
      <point x="434" y="11"/>
      <point x="485" y="-10"/>
      <point x="556" y="-10" type="curve" smooth="yes"/>
      <point x="637" y="-10"/>
      <point x="700" y="33"/>
      <point x="723" y="93" type="curve"/>
      <point x="700" y="110" type="line"/>
      <point x="687" y="70"/>
      <point x="627" y="23"/>
      <point x="568" y="23" type="curve" smooth="yes"/>
      <point x="480" y="23"/>
      <point x="432" y="94"/>
      <point x="432" y="217" type="curve"/>
      <point x="726" y="217" type="line"/>
      <point x="726" y="239" type="line" smooth="yes"/>
      <point x="726" y="359"/>
      <point x="660" y="430"/>
      <point x="551" y="430" type="curve" smooth="yes"/>
    </contour>
    <contour>
      <point x="315" y="403"/>
      <point x="345" y="356"/>
      <point x="345" y="207" type="curve" smooth="yes"/>
      <point x="345" y="86"/>
      <point x="327" y="17"/>
      <point x="228" y="17" type="curve" smooth="yes"/>
      <point x="148" y="17"/>
      <point x="126" y="101"/>
      <point x="126" y="203" type="curve" smooth="yes"/>
      <point x="126" y="340"/>
      <point x="156" y="403"/>
      <point x="227" y="403" type="curve" smooth="yes"/>
    </contour>
    <contour>
      <point x="614" y="403"/>
      <point x="641" y="361"/>
      <point x="641" y="257" type="curve" smooth="yes"/>
      <point x="641" y="250"/>
      <point x="638" y="242"/>
      <point x="629" y="242" type="curve" smooth="yes"/>
      <point x="432" y="242" type="line"/>
      <point x="432" y="358"/>
      <point x="475" y="403"/>
      <point x="546" y="403" type="curve" smooth="yes"/>
    </contour>
    <contour>
      <point x="392" y="420" type="move" name="top"/>
    </contour>
  </outline>
</glyph>
<glyph name="dotlessj" format="1">
  <advance width="251"/>
  <unicode hex="0237"/>
  <outline>
    <contour>
      <point x="31" y="420" type="line"/>
      <point x="31" y="394" type="line"/>
      <point x="72" y="396" type="line" smooth="yes"/>
      <point x="81" y="396"/>
      <point x="85" y="387"/>
      <point x="85" y="376" type="curve" smooth="yes"/>
      <point x="85" y="-59" type="line" smooth="yes"/>
      <point x="85" y="-85"/>
      <point x="87" y="-128"/>
      <point x="87" y="-133" type="curve" smooth="yes"/>
      <point x="87" y="-188"/>
      <point x="69" y="-216"/>
      <point x="34" y="-216" type="curve" smooth="yes"/>
      <point x="15" y="-216"/>
      <point x="3" y="-207"/>
      <point x="3" y="-191" type="curve" smooth="yes"/>
      <point x="3" y="-182"/>
      <point x="9" y="-170"/>
      <point x="9" y="-160" type="curve" smooth="yes"/>
      <point x="9" y="-136"/>
      <point x="-16" y="-132"/>
      <point x="-26" y="-132" type="curve" smooth="yes"/>
      <point x="-54" y="-132"/>
      <point x="-73" y="-149"/>
      <point x="-73" y="-176" type="curve" smooth="yes"/>
      <point x="-73" y="-211"/>
      <point x="-36" y="-243"/>
      <point x="28" y="-243" type="curve" smooth="yes"/>
      <point x="121" y="-243"/>
      <point x="171" y="-169"/>
      <point x="171" y="-4" type="curve" smooth="yes"/>
      <point x="171" y="420" type="line"/>
    </contour>
    <contour>
      <point x="126" y="420" type="move" name="top"/>
    </contour>
  </outline>
</glyph>
<glyph name="caron" format="1">
  <advance width="382"/>
  <unicode hex="02C7"/>
  <outline>
    <contour>
      <point x="35" y="640"/>
      <point x="73" y="617"/>
      <point x="114" y="574" type="curve" smooth="yes"/>
      <point x="137" y="550" type="line"/>
      <point x="161" y="526" type="line" smooth="yes"/>
      <point x="177" y="511"/>
      <point x="188" y="501"/>
      <point x="191" y="501" type="curve" smooth="yes"/>
      <point x="194" y="501"/>
      <point x="205" y="511"/>
      <point x="221" y="526" type="curve" smooth="yes"/>
      <point x="245" y="550" type="line"/>
      <point x="268" y="574" type="line" smooth="yes"/>
      <point x="309" y="617"/>
      <point x="347" y="640"/>
      <point x="347" y="649" type="curve" smooth="yes"/>
      <point x="347" y="652"/>
      <point x="346" y="657"/>
      <point x="338" y="657" type="curve" smooth="yes"/>
      <point x="331" y="657"/>
      <point x="318" y="650"/>
      <point x="310" y="645" type="curve" smooth="yes"/>
      <point x="191" y="571" type="line"/>
      <point x="72" y="645" type="line" smooth="yes"/>
      <point x="64" y="650"/>
      <point x="51" y="657"/>
      <point x="44" y="657" type="curve" smooth="yes"/>
      <point x="36" y="657"/>
      <point x="35" y="652"/>
      <point x="35" y="649" type="curve" smooth="yes"/>
    </contour>
    <contour>
      <point x="191" y="420" type="move" name="_top"/>
    </contour>
  </outline>
</glyph>
<glyph name="dotaccent" format="1">
  <advance width="178"/>
  <unicode hex="02D9"/>
  <outline>
    <contour>
      <point x="35" y="566"/>
      <point x="58" y="547"/>
      <point x="89" y="547" type="curve" smooth="yes"/>
      <point x="120" y="547"/>
      <point x="143" y="566"/>
      <point x="143" y="595" type="curve" smooth="yes"/>
      <point x="143" y="623"/>
      <point x="118" y="644"/>
      <point x="89" y="644" type="curve" smooth="yes"/>
      <point x="58" y="644"/>
      <point x="35" y="623"/>
      <point x="35" y="595" type="curve" smooth="yes"/>
    </contour>
    <contour>
      <point x="89" y="420" type="move" name="_top"/>
    </contour>
  </outline>
</glyph>
<glyph name="ring" format="1">
  <advance width="237"/>
  <unicode hex="02DA"/>
  <outline>
    <contour>
      <point x="35" y="530"/>
      <point x="72" y="493"/>
      <point x="118" y="493" type="curve" smooth="yes"/>
      <point x="164" y="493"/>
      <point x="202" y="530"/>
      <point x="202" y="575" type="curve" smooth="yes"/>
      <point x="202" y="620"/>
      <point x="164" y="656"/>
      <point x="118" y="656" type="curve" smooth="yes"/>
      <point x="72" y="656"/>
      <point x="35" y="620"/>
      <point x="35" y="575" type="curve" smooth="yes"/>
    </contour>
    <contour>
      <point x="77" y="602"/>
      <point x="93" y="620"/>
      <point x="118" y="620" type="curve" smooth="yes"/>
      <point x="143" y="620"/>
      <point x="160" y="602"/>
      <point x="160" y="575" type="curve" smooth="yes"/>
      <point x="160" y="547"/>
      <point x="143" y="529"/>
      <point x="118" y="529" type="curve" smooth="yes"/>
      <point x="93" y="529"/>
      <point x="77" y="547"/>
      <point x="77" y="575" type="curve" smooth="yes"/>
    </contour>
    <contour>
      <point x="119" y="420" type="move" name="_top"/>
    </contour>
  </outline>
</glyph>
<glyph name="ogonek" format="1">
  <advance width="242"/>
  <unicode hex="02DB"/>
  <outline>
    <contour>
      <point x="205" y="-87" type="line"/>
      <point x="183" y="-106"/>
      <point x="159" y="-116"/>
      <point x="135" y="-116" type="curve" smooth="yes"/>
      <point x="95" y="-116"/>
      <point x="77" y="-92"/>
      <point x="77" y="-62" type="curve" smooth="yes"/>
      <point x="77" y="-29"/>
      <point x="96" y="-1"/>
      <point x="128" y="14" type="curve"/>
      <point x="100" y="14" type="line"/>
      <point x="50" y="-9"/>
      <point x="25" y="-47"/>
      <point x="25" y="-87" type="curve" smooth="yes"/>
      <point x="25" y="-135"/>
      <point x="62" y="-159"/>
      <point x="99" y="-159" type="curve" smooth="yes"/>
      <point x="142" y="-159"/>
      <point x="184" y="-137"/>
      <point x="217" y="-99" type="curve"/>
    </contour>
    <contour>
      <point x="128" y="14" type="move" name="_ogonek"/>
    </contour>
  </outline>
</glyph>
<glyph name="tilde" format="1">
  <advance width="356"/>
  <unicode hex="02DC"/>
  <outline>
    <contour>
      <point x="55" y="530" type="line"/>
      <point x="55" y="554"/>
      <point x="69" y="572"/>
      <point x="88" y="572" type="curve" smooth="yes"/>
      <point x="128" y="572"/>
      <point x="213" y="529"/>
      <point x="257" y="529" type="curve" smooth="yes"/>
      <point x="294" y="529"/>
      <point x="321" y="571"/>
      <point x="321" y="620" type="curve"/>
      <point x="301" y="620" type="line"/>
      <point x="301" y="596"/>
      <point x="287" y="578"/>
      <point x="268" y="578" type="curve" smooth="yes"/>
      <point x="229" y="578"/>
      <point x="142" y="621"/>
      <point x="99" y="621" type="curve" smooth="yes"/>
      <point x="62" y="621"/>
      <point x="35" y="579"/>
      <point x="35" y="530" type="curve"/>
    </contour>
    <contour>
      <point x="178" y="420" type="move" name="_top"/>
    </contour>
  </outline>
</glyph>
<glyph name="pi" format="1">
  <advance width="608"/>
  <unicode hex="03C0"/>
  <outline>
    <contour>
      <point x="567" y="463" type="line"/>
      <point x="557" y="433"/>
      <point x="549" y="420"/>
      <point x="513" y="420" type="curve" smooth="yes"/>
      <point x="452" y="420"/>
      <point x="303" y="430"/>
      <point x="200" y="430" type="curve" smooth="yes"/>
      <point x="141" y="430"/>
      <point x="80" y="407"/>
      <point x="40" y="322" type="curve"/>
      <point x="58" y="310" type="line"/>
      <point x="88" y="352"/>
      <point x="128" y="365"/>
      <point x="186" y="365" type="curve" smooth="yes"/>
      <point x="290" y="365"/>
      <point x="418" y="355"/>
      <point x="501" y="355" type="curve" smooth="yes"/>
      <point x="546" y="355" type="line" smooth="yes"/>
      <point x="561" y="355"/>
      <point x="570" y="354"/>
      <point x="576" y="353" type="curve"/>
      <point x="576" y="372" type="line" smooth="yes"/>
      <point x="576" y="388"/>
      <point x="578" y="413"/>
      <point x="593" y="458" type="curve"/>
    </contour>
    <contour>
      <point x="393" y="365" type="line"/>
      <point x="386" y="305"/>
      <point x="370" y="195"/>
      <point x="370" y="113" type="curve" smooth="yes"/>
      <point x="370" y="52"/>
      <point x="379" y="-6"/>
      <point x="472" y="-6" type="curve" smooth="yes"/>
      <point x="520" y="-6"/>
      <point x="545" y="9"/>
      <point x="570" y="50" type="curve"/>
      <point x="553" y="63" type="line"/>
      <point x="538" y="40"/>
      <point x="517" y="23"/>
      <point x="495" y="23" type="curve" smooth="yes"/>
      <point x="462" y="23"/>
      <point x="456" y="63"/>
      <point x="456" y="126" type="curve" smooth="yes"/>
      <point x="456" y="188"/>
      <point x="462" y="279"/>
      <point x="467" y="365" type="curve"/>
    </contour>
    <contour>
      <point x="208" y="378" type="line"/>
      <point x="202" y="322"/>
      <point x="189" y="225"/>
      <point x="174" y="153" type="curve" smooth="yes"/>
      <point x="167" y="125"/>
      <point x="156" y="73"/>
      <point x="122" y="73" type="curve" smooth="yes"/>
      <point x="101" y="73"/>
      <point x="92" y="84"/>
      <point x="72" y="84" type="curve" smooth="yes"/>
      <point x="49" y="84"/>
      <point x="34" y="65"/>
      <point x="34" y="37" type="curve" smooth="yes"/>
      <point x="34" y="2"/>
      <point x="60" y="-10"/>
      <point x="84" y="-10" type="curve" smooth="yes"/>
      <point x="166" y="-10"/>
      <point x="194" y="88"/>
      <point x="207" y="144" type="curve" smooth="yes"/>
      <point x="221" y="220"/>
      <point x="237" y="320"/>
      <point x="241" y="378" type="curve"/>
    </contour>
  </outline>
</glyph>
<glyph name="quoteright" format="1">
  <advance width="220"/>
  <unicode hex="2019"/>
  <outline>
    <contour>
      <point x="83" y="379" type="line"/>
      <point x="127" y="409"/>
      <point x="193" y="473"/>
      <point x="193" y="547" type="curve" smooth="yes"/>
      <point x="193" y="600"/>
      <point x="170" y="630"/>
      <point x="123" y="630" type="curve" smooth="yes"/>
      <point x="92" y="630"/>
      <point x="65" y="605"/>
      <point x="65" y="577" type="curve" smooth="yes"/>
      <point x="65" y="560"/>
      <point x="70" y="534"/>
      <point x="97" y="534" type="curve" smooth="yes"/>
      <point x="117" y="534"/>
      <point x="133" y="528"/>
      <point x="133" y="505" type="curve" smooth="yes"/>
      <point x="133" y="472"/>
      <point x="95" y="419"/>
      <point x="64" y="390" type="curve"/>
    </contour>
  </outline>
</glyph>
<glyph name="dagger" format="1">
  <advance width="528"/>
  <unicode hex="2020"/>
  <outline>
    <contour>
      <point x="245" y="410" type="line"/>
      <point x="248" y="352"/>
      <point x="209" y="332"/>
      <point x="209" y="299" type="curve" smooth="yes"/>
      <point x="209" y="280"/>
      <point x="219" y="243"/>
      <point x="222" y="156" type="curve" smooth="yes"/>
      <point x="225" y="11"/>
      <point x="229" y="-150"/>
      <point x="259" y="-150" type="curve" smooth="yes"/>
      <point x="289" y="-150"/>
      <point x="293" y="11"/>
      <point x="296" y="156" type="curve" smooth="yes"/>
      <point x="299" y="243"/>
      <point x="309" y="280"/>
      <point x="309" y="299" type="curve" smooth="yes"/>
      <point x="309" y="332"/>
      <point x="270" y="343"/>
      <point x="273" y="410" type="curve"/>
    </contour>
    <contour>
      <point x="273" y="405" type="line"/>
      <point x="284" y="434"/>
      <point x="289" y="458"/>
      <point x="289" y="477" type="curve" smooth="yes"/>
      <point x="289" y="495"/>
      <point x="277" y="527"/>
      <point x="277" y="544" type="curve" smooth="yes"/>
      <point x="277" y="571"/>
      <point x="307" y="577"/>
      <point x="307" y="604" type="curve" smooth="yes"/>
      <point x="307" y="623"/>
      <point x="286" y="640"/>
      <point x="259" y="640" type="curve" smooth="yes"/>
      <point x="232" y="640"/>
      <point x="211" y="623"/>
      <point x="211" y="604" type="curve" smooth="yes"/>
      <point x="211" y="577"/>
      <point x="241" y="571"/>
      <point x="241" y="544" type="curve" smooth="yes"/>
      <point x="241" y="532"/>
      <point x="229" y="494"/>
      <point x="229" y="477" type="curve" smooth="yes"/>
      <point x="229" y="458"/>
      <point x="234" y="434"/>
      <point x="245" y="405" type="curve"/>
    </contour>
    <contour>
      <point x="265" y="403" type="line"/>
      <point x="284" y="393"/>
      <point x="299" y="390"/>
      <point x="314" y="390" type="curve" smooth="yes"/>
      <point x="337" y="390"/>
      <point x="358" y="397"/>
      <point x="382" y="397" type="curve" smooth="yes"/>
      <point x="417" y="397"/>
      <point x="414" y="358"/>
      <point x="443" y="358" type="curve" smooth="yes"/>
      <point x="474" y="358"/>
      <point x="483" y="379"/>
      <point x="483" y="408" type="curve" smooth="yes"/>
      <point x="483" y="437"/>
      <point x="456" y="458"/>
      <point x="423" y="458" type="curve" smooth="yes"/>
      <point x="372" y="458"/>
      <point x="367" y="416"/>
      <point x="263" y="416" type="curve"/>
      <point x="255" y="416" type="line"/>
      <point x="153" y="416"/>
      <point x="141" y="458"/>
      <point x="95" y="458" type="curve" smooth="yes"/>
      <point x="62" y="458"/>
      <point x="35" y="437"/>
      <point x="35" y="408" type="curve" smooth="yes"/>
      <point x="35" y="379"/>
      <point x="44" y="358"/>
      <point x="75" y="358" type="curve" smooth="yes"/>
      <point x="103" y="358"/>
      <point x="102" y="397"/>
      <point x="136" y="397" type="curve" smooth="yes"/>
      <point x="160" y="397"/>
      <point x="181" y="390"/>
      <point x="204" y="390" type="curve" smooth="yes"/>
      <point x="219" y="390"/>
      <point x="234" y="393"/>
      <point x="253" y="403" type="curve"/>
    </contour>
  </outline>
</glyph>
<glyph name="guilsinglleft" format="1">
  <advance width="261"/>
  <unicode hex="2039"/>
  <outline>
    <contour>
      <point x="175" y="16" type="line"/>
      <point x="211" y="16" type="line"/>
      <point x="113" y="187" type="line"/>
      <point x="211" y="358" type="line"/>
      <point x="175" y="358" type="line"/>
      <point x="26" y="187" type="line"/>
    </contour>
  </outline>
</glyph>
<glyph name="Euro" format="1">
  <advance width="466"/>
  <unicode hex="20AC"/>
  <outline>
    <contour>
      <point x="135" y="607"/>
      <point x="45" y="492"/>
      <point x="45" y="295" type="curve" smooth="yes"/>
      <point x="45" y="106"/>
      <point x="136" y="-10"/>
      <point x="282" y="-10" type="curve" smooth="yes"/>
      <point x="352" y="-10"/>
      <point x="411" y="35"/>
      <point x="453" y="35" type="curve" smooth="yes"/>
      <point x="459" y="35" type="line"/>
      <point x="457" y="47"/>
      <point x="456" y="63"/>
      <point x="456" y="82" type="curve" smooth="yes"/>
      <point x="456" y="95"/>
      <point x="457" y="128"/>
      <point x="462" y="167" type="curve"/>
      <point x="434" y="167" type="line"/>
      <point x="420" y="82"/>
      <point x="364" y="17"/>
      <point x="294" y="17" type="curve" smooth="yes"/>
      <point x="205" y="17"/>
      <point x="147" y="131"/>
      <point x="147" y="295" type="curve" smooth="yes"/>
      <point x="147" y="467"/>
      <point x="201" y="582"/>
      <point x="289" y="582" type="curve" smooth="yes"/>
      <point x="356" y="582"/>
      <point x="416" y="515"/>
      <point x="429" y="433" type="curve"/>
      <point x="453" y="433" type="line"/>
      <point x="451" y="435"/>
      <point x="449" y="459"/>
      <point x="449" y="489" type="curve" smooth="yes"/>
      <point x="449" y="513"/>
      <point x="450" y="541"/>
      <point x="453" y="564" type="curve"/>
      <point x="393" y="564"/>
      <point x="369" y="607"/>
      <point x="286" y="607" type="curve" smooth="yes"/>
    </contour>
    <contour>
      <point x="12" y="258" type="line"/>
      <point x="2" y="217" type="line"/>
      <point x="373" y="217" type="line"/>
      <point x="383" y="258" type="line"/>
    </contour>
    <contour>
      <point x="12" y="372" type="line"/>
      <point x="2" y="331" type="line"/>
      <point x="373" y="331" type="line"/>
      <point x="383" y="372" type="line"/>
    </contour>
  </outline>
</glyph>
<glyph name="product" format="1">
  <advance width="633"/>
  <unicode hex="220F"/>
  <outline>
    <contour>
      <point x="270" y="-80" type="line"/>
      <point x="270" y="-51" type="line"/>
      <point x="221" y="-53" type="line" smooth="yes"/>
      <point x="208" y="-53"/>
      <point x="201" y="-46"/>
      <point x="201" y="-31" type="curve" smooth="yes"/>
      <point x="201" y="566" type="line"/>
      <point x="432" y="566" type="line"/>
      <point x="432" y="-31" type="line" smooth="yes"/>
      <point x="432" y="-46"/>
      <point x="426" y="-53"/>
      <point x="413" y="-53" type="curve" smooth="yes"/>
      <point x="364" y="-51" type="line"/>
      <point x="364" y="-80" type="line"/>
      <point x="583" y="-80" type="line"/>
      <point x="583" y="-51" type="line"/>
      <point x="544" y="-53" type="line" smooth="yes"/>
      <point x="531" y="-53"/>
      <point x="525" y="-46"/>
      <point x="525" y="-31" type="curve" smooth="yes"/>
      <point x="525" y="548" type="line" smooth="yes"/>
      <point x="525" y="560"/>
      <point x="531" y="570"/>
      <point x="544" y="569" type="curve" smooth="yes"/>
      <point x="583" y="567" type="line"/>
      <point x="583" y="597" type="line"/>
      <point x="50" y="597" type="line"/>
      <point x="50" y="567" type="line"/>
      <point x="89" y="569" type="line" smooth="yes"/>
      <point x="104" y="570"/>
      <point x="108" y="559"/>
      <point x="108" y="548" type="curve" smooth="yes"/>
      <point x="108" y="-31" type="line" smooth="yes"/>
      <point x="108" y="-46"/>
      <point x="102" y="-53"/>
      <point x="89" y="-53" type="curve" smooth="yes"/>
      <point x="50" y="-51" type="line"/>
      <point x="50" y="-80" type="line"/>
    </contour>
  </outline>
</glyph>
<glyph name="summation" format="1">
  <advance width="512"/>
  <unicode hex="2211"/>
  <outline>
    <contour>
      <point x="147" y="569" type="line"/>
      <point x="344" y="569" type="line" smooth="yes"/>
      <point x="403" y="569"/>
      <point x="429" y="543"/>
      <point x="436" y="468" type="curve"/>
      <point x="467" y="468" type="line"/>
      <point x="463" y="507"/>
      <point x="457" y="580"/>
      <point x="457" y="600" type="curve"/>
      <point x="446" y="597"/>
      <point x="407" y="597"/>
      <point x="354" y="597" type="curve" smooth="yes"/>
      <point x="48" y="597" type="line"/>
      <point x="48" y="574" type="line"/>
    </contour>
    <contour>
      <point x="38" y="-55" type="line"/>
      <point x="38" y="-80" type="line"/>
      <point x="354" y="-80" type="line" smooth="yes"/>
      <point x="406" y="-80"/>
      <point x="444" y="-80"/>
      <point x="455" y="-83" type="curve"/>
      <point x="455" y="-59"/>
      <point x="467" y="24"/>
      <point x="475" y="69" type="curve"/>
      <point x="444" y="69" type="line"/>
      <point x="437" y="8"/>
      <point x="411" y="-15"/>
      <point x="352" y="-15" type="curve" smooth="yes"/>
      <point x="96" y="-15" type="line"/>
    </contour>
    <contour>
      <point x="48" y="574" type="line"/>
      <point x="248" y="221" type="line"/>
      <point x="305" y="305" type="line"/>
      <point x="153" y="579" type="line"/>
    </contour>
    <contour>
      <point x="101" y="-24" type="line"/>
      <point x="305" y="305" type="line"/>
      <point x="255" y="297" type="line"/>
      <point x="38" y="-55" type="line"/>
    </contour>
  </outline>
</glyph>
<glyph name="integral" format="1">
  <advance width="425"/>
  <unicode hex="222B"/>
  <outline>
    <contour>
      <point x="214" y="779"/>
      <point x="166" y="661"/>
      <point x="166" y="514" type="curve" smooth="yes"/>
      <point x="166" y="377"/>
      <point x="193" y="100"/>
      <point x="193" y="52" type="curve" smooth="yes"/>
      <point x="193" y="-80"/>
      <point x="183" y="-136"/>
      <point x="155" y="-136" type="curve" smooth="yes"/>
      <point x="127" y="-136"/>
      <point x="132" y="-115"/>
      <point x="132" y="-96" type="curve" smooth="yes"/>
      <point x="132" y="-80"/>
      <point x="129" y="-65"/>
      <point x="99" y="-65" type="curve" smooth="yes"/>
      <point x="64" y="-65"/>
      <point x="51" y="-88"/>
      <point x="51" y="-109" type="curve" smooth="yes"/>
      <point x="51" y="-148"/>
      <point x="89" y="-167"/>
      <point x="131" y="-167" type="curve" smooth="yes"/>
      <point x="221" y="-167"/>
      <point x="269" y="-49"/>
      <point x="269" y="98" type="curve" smooth="yes"/>
      <point x="269" y="215"/>
      <point x="242" y="492"/>
      <point x="242" y="560" type="curve" smooth="yes"/>
      <point x="242" y="692"/>
      <point x="252" y="748"/>
      <point x="280" y="748" type="curve" smooth="yes"/>
      <point x="308" y="748"/>
      <point x="303" y="727"/>
      <point x="303" y="708" type="curve" smooth="yes"/>
      <point x="303" y="692"/>
      <point x="306" y="677"/>
      <point x="336" y="677" type="curve" smooth="yes"/>
      <point x="371" y="677"/>
      <point x="384" y="700"/>
      <point x="384" y="721" type="curve" smooth="yes"/>
      <point x="384" y="760"/>
      <point x="346" y="779"/>
      <point x="304" y="779" type="curve" smooth="yes"/>
    </contour>
  </outline>
</glyph>
<glyph name="approxequal" format="1">
  <advance width="460"/>
  <unicode hex="2248"/>
  <outline>
    <contour>
      <point x="55" y="278" type="line"/>
      <point x="86" y="323"/>
      <point x="104" y="332"/>
      <point x="137" y="332" type="curve" smooth="yes"/>
      <point x="192" y="332"/>
      <point x="264" y="267"/>
      <point x="321" y="267" type="curve" smooth="yes"/>
      <point x="365" y="267"/>
      <point x="406" y="297"/>
      <point x="435" y="345" type="curve"/>
      <point x="407" y="374" type="line"/>
      <point x="376" y="329"/>
      <point x="354" y="315"/>
      <point x="321" y="315" type="curve" smooth="yes"/>
      <point x="266" y="315"/>
      <point x="196" y="380"/>
      <point x="137" y="380" type="curve" smooth="yes"/>
      <point x="93" y="380"/>
      <point x="57" y="356"/>
      <point x="28" y="307" type="curve"/>
    </contour>
    <contour>
      <point x="55" y="78" type="line"/>
      <point x="86" y="123"/>
      <point x="104" y="132"/>
      <point x="137" y="132" type="curve" smooth="yes"/>
      <point x="192" y="132"/>
      <point x="264" y="67"/>
      <point x="321" y="67" type="curve" smooth="yes"/>
      <point x="365" y="67"/>
      <point x="406" y="97"/>
      <point x="435" y="145" type="curve"/>
      <point x="407" y="174" type="line"/>
      <point x="376" y="129"/>
      <point x="354" y="115"/>
      <point x="321" y="115" type="curve" smooth="yes"/>
      <point x="266" y="115"/>
      <point x="196" y="180"/>
      <point x="137" y="180" type="curve" smooth="yes"/>
      <point x="93" y="180"/>
      <point x="57" y="156"/>
      <point x="28" y="107" type="curve"/>
    </contour>
  </outline>
</glyph>
<glyph name="notequal" format="1">
  <advance width="460"/>
  <unicode hex="2260"/>
  <outline>
    <contour>
      <point x="165" y="-5" type="line"/>
      <point x="320" y="444" type="line"/>
      <point x="282" y="453" type="line"/>
      <point x="126" y="6" type="line"/>
    </contour>
    <component base="equal"/>
  </outline>
</glyph>
<glyph name="dieresis.case" format="1">
  <advance width="373"/>
  <outline>
    <component base="dieresis" yOffset="149"/>
    <contour>
      <point x="187" y="598" type="move" name="_top"/>
    </contour>
  </outline>
</glyph>
<glyph name="macron.case" format="1">
  <advance width="309"/>
  <outline>
    <component base="macron" xOffset="-69" yOffset="139"/>
    <contour>
      <point x="155" y="598" type="move" name="_top"/>
    </contour>
  </outline>
</glyph>
